<svg width="164" height="61" viewBox="0 0 164 61" fill="none" xmlns="http://www.w3.org/2000/svg">
<g clip-path="url(#clip0_6_2053)">
<path d="M124.801 19.4524C124.834 20.8261 124.535 22.178 123.942 23.4808C123.775 23.8461 123.587 24.2004 123.382 24.5602C123.227 24.8273 123.055 25.0944 122.872 25.356C122.85 25.3887 122.828 25.4215 122.805 25.4542C122.728 25.5686 122.645 25.6777 122.562 25.7867C122.395 26.0102 122.218 26.2337 122.029 26.4572C121.946 26.5553 121.863 26.6534 121.775 26.7516C121.686 26.8551 121.592 26.9533 121.497 27.0568C121.453 27.1059 121.414 27.1495 121.37 27.1931C121.326 27.2367 121.281 27.2858 121.237 27.3294C121.137 27.433 121.032 27.542 120.921 27.6456C120.866 27.7001 120.816 27.7491 120.76 27.8036C120.749 27.8145 120.744 27.82 120.733 27.8309C120.605 27.9563 120.472 28.0762 120.339 28.1961C120.212 28.3106 120.09 28.4196 119.957 28.5341C119.879 28.605 119.796 28.6704 119.713 28.7413C119.624 28.8176 119.53 28.8939 119.441 28.9648C119.341 29.0465 119.247 29.1228 119.147 29.2046C119.07 29.27 118.987 29.33 118.903 29.3954C118.776 29.4935 118.643 29.5971 118.51 29.6952C118.31 29.8424 118.105 29.9896 117.895 30.1368C117.756 30.2349 117.612 30.333 117.468 30.4311C117.346 30.5129 117.219 30.5947 117.097 30.6764C116.825 30.8563 116.542 31.0308 116.254 31.2052C116.066 31.3197 115.872 31.4342 115.672 31.5486C115.55 31.6195 115.428 31.6904 115.301 31.7612C115.207 31.8157 115.112 31.8648 115.018 31.9193C114.924 31.9738 114.83 32.0229 114.73 32.0774C114.536 32.181 114.342 32.2845 114.148 32.3881C111.815 33.6037 109.16 34.6885 106.244 35.6207C103.329 36.5529 100.153 37.3215 96.7779 37.9102C96.7723 37.9102 96.7668 37.9102 96.7557 37.9102C101.084 37.0326 105.042 35.8497 108.506 34.4214C109.193 34.138 109.858 33.8436 110.507 33.5438C118.299 29.9078 123.077 24.969 122.955 19.6159C122.95 19.5069 122.95 19.3979 122.938 19.2888C122.805 16.4596 121.276 13.8158 118.643 11.4718C112.785 6.18953 101.495 2.42274 88.0208 1.56689C88.1649 1.57235 88.3034 1.5778 88.4475 1.58325C88.7967 1.5996 89.1403 1.61596 89.484 1.63231C89.8276 1.64866 90.1712 1.67047 90.5149 1.69227C90.6423 1.69772 90.7698 1.70863 90.8973 1.71953C91.2797 1.74678 91.6622 1.77404 92.0446 1.80675C92.233 1.8231 92.4215 1.83946 92.6099 1.85581C92.9259 1.88307 93.2418 1.91577 93.5522 1.94303C94.7161 2.0575 95.8634 2.19924 96.9885 2.35732C97.0218 2.36277 97.0606 2.36822 97.0938 2.37368C97.4319 2.42274 97.7644 2.4718 98.097 2.52631C98.2023 2.54266 98.3132 2.55902 98.4185 2.57537C98.9505 2.66259 99.4771 2.74981 99.9981 2.84793C100.098 2.86429 100.192 2.88609 100.292 2.90244C100.392 2.9188 100.486 2.9406 100.586 2.95696C100.685 2.97331 100.78 2.99512 100.874 3.01147C101.068 3.04963 101.262 3.08779 101.45 3.12594C101.539 3.1423 101.622 3.1641 101.711 3.18046C102.01 3.24042 102.309 3.30584 102.609 3.37125C102.697 3.39305 102.786 3.40941 102.875 3.43121C102.969 3.45302 103.063 3.47482 103.157 3.49663C103.329 3.53479 103.506 3.5784 103.678 3.61655C103.695 3.62201 103.712 3.62746 103.734 3.62746C103.822 3.64926 103.906 3.67107 103.994 3.69287C104.177 3.73648 104.36 3.78554 104.543 3.82915C104.704 3.87276 104.864 3.91092 105.025 3.95453C105.507 4.07991 105.984 4.21074 106.45 4.34702C106.588 4.38518 106.727 4.42879 106.865 4.46695C107.004 4.51056 107.137 4.54871 107.275 4.59232C107.442 4.64139 107.608 4.6959 107.774 4.75041C108.013 4.82673 108.251 4.90304 108.484 4.97936C108.617 5.02297 108.75 5.06658 108.877 5.11019C109.01 5.1538 109.138 5.19741 109.271 5.24647C109.498 5.32824 109.725 5.40456 109.947 5.48633C109.98 5.49723 110.008 5.50813 110.041 5.51903C110.047 5.52448 110.058 5.52448 110.063 5.52994C110.285 5.6117 110.507 5.69347 110.723 5.78069C110.745 5.79159 110.773 5.79705 110.795 5.80795C111.044 5.90607 111.294 6.00419 111.538 6.10231C111.587 6.12412 111.643 6.14592 111.693 6.16773C111.887 6.24405 112.075 6.32581 112.264 6.40213C112.341 6.43484 112.424 6.473 112.502 6.5057C112.602 6.54931 112.696 6.59292 112.796 6.63108C112.857 6.65834 112.912 6.6856 112.973 6.7074C113.012 6.72375 113.051 6.74556 113.089 6.76191C113.283 6.84913 113.472 6.93635 113.66 7.02357C113.998 7.18166 114.336 7.34519 114.663 7.51418C114.736 7.55234 114.808 7.5905 114.88 7.62321C114.913 7.63956 114.952 7.66136 114.99 7.67772C115.207 7.78674 115.417 7.90122 115.628 8.01569C115.733 8.07566 115.839 8.13017 115.938 8.19013C116.044 8.2501 116.143 8.30461 116.243 8.36457C116.31 8.40273 116.376 8.44089 116.443 8.4845C116.509 8.52266 116.576 8.56082 116.642 8.59897C116.709 8.63713 116.775 8.68074 116.842 8.7189C117.074 8.86063 117.302 9.00237 117.523 9.1441C117.867 9.3676 118.2 9.5911 118.527 9.82005C118.649 9.90727 118.765 9.98904 118.881 10.0763C118.937 10.1199 118.992 10.158 119.048 10.2016C119.43 10.4906 119.796 10.7795 120.145 11.0793C120.234 11.1556 120.317 11.2265 120.406 11.3028C120.577 11.4554 120.738 11.6026 120.899 11.7552C120.982 11.8316 121.06 11.9079 121.137 11.9842C121.276 12.1205 121.409 12.2567 121.542 12.3985C121.797 12.6656 122.035 12.9382 122.262 13.2162C122.434 13.4233 122.595 13.6305 122.75 13.8431C122.8 13.9139 122.85 13.9848 122.9 14.0557C122.999 14.1974 123.094 14.3391 123.188 14.4808C123.282 14.6226 123.365 14.7698 123.454 14.9115C123.504 14.9987 123.559 15.0914 123.609 15.1841C123.637 15.2386 123.67 15.2931 123.698 15.3476C123.709 15.3694 123.72 15.3912 123.731 15.4185C123.764 15.4784 123.792 15.5384 123.82 15.5983C123.847 15.6529 123.87 15.7019 123.897 15.7564C123.914 15.7946 123.931 15.8273 123.947 15.8655C123.969 15.9145 123.991 15.9636 124.014 16.0126C124.064 16.1271 124.113 16.247 124.158 16.3615C124.174 16.4051 124.191 16.4487 124.208 16.4923C124.307 16.7649 124.396 17.0375 124.474 17.31C124.49 17.3645 124.501 17.4191 124.518 17.4736C124.535 17.5281 124.546 17.5826 124.557 17.6371C124.557 17.6426 124.557 17.6426 124.557 17.648C124.568 17.7025 124.579 17.757 124.59 17.8061C124.601 17.8606 124.612 17.9151 124.623 17.9751C124.646 18.0841 124.662 18.1986 124.684 18.3131C124.69 18.3567 124.695 18.4003 124.701 18.4384C124.706 18.4602 124.706 18.482 124.712 18.5038C124.718 18.542 124.723 18.5856 124.729 18.6292C124.729 18.6456 124.734 18.6674 124.734 18.6837C124.74 18.7219 124.745 18.7601 124.745 18.7982C124.751 18.8255 124.751 18.8527 124.751 18.88C124.756 18.9127 124.756 18.9454 124.756 18.9781C124.79 19.1362 124.795 19.2943 124.801 19.4524Z" fill="#C9CAC9"/>
<path d="M114.148 32.3827C114.342 32.2791 114.542 32.1755 114.73 32.072C114.542 32.1755 114.348 32.2791 114.148 32.3827Z" fill="#C9CAC9"/>
<path d="M119.957 28.5287C120.084 28.4142 120.212 28.3051 120.339 28.1907C120.212 28.3051 120.084 28.4196 119.957 28.5287Z" fill="#C9CAC9"/>
<path d="M120.339 28.1907C120.472 28.0707 120.605 27.9454 120.733 27.8254C120.599 27.9454 120.472 28.0707 120.339 28.1907Z" fill="#C9CAC9"/>
<path d="M124.019 16.0126C124.069 16.1271 124.119 16.247 124.163 16.3615C124.119 16.2416 124.069 16.1271 124.019 16.0126Z" fill="#C9CAC9"/>
<path d="M95.0099 0.852783C114.846 1.90487 130.122 9.33489 130.332 18.6728C130.371 20.3464 129.922 21.9817 129.046 23.5408C127.262 26.7297 123.709 29.6298 118.887 32.0065C127.794 27.9781 133.192 22.6522 132.848 17.1247C132.278 7.95573 116.088 1.68137 95.0099 0.852783Z" fill="white"/>
<path d="M76.6476 1.56146C76.6532 1.56146 76.6532 1.56146 76.6476 1.56146C76.6365 1.56146 76.6255 1.56146 76.6144 1.56691H76.6199C76.631 1.56146 76.6421 1.56146 76.6476 1.56146Z" fill="white"/>
<path d="M116.553 8.539C116.454 8.47904 116.354 8.41908 116.249 8.36456C116.315 8.40272 116.382 8.44088 116.448 8.47904C116.487 8.50084 116.52 8.52265 116.553 8.539Z" fill="white"/>
<path d="M116.847 8.71892C116.748 8.65896 116.648 8.59899 116.548 8.53903C116.515 8.51722 116.481 8.50087 116.448 8.47906C116.587 8.56083 116.72 8.63715 116.847 8.71892Z" fill="white"/>
<path d="M130.332 18.6783C130.371 20.3518 129.922 21.9872 129.046 23.5517C127.262 26.7407 123.709 29.6407 118.887 32.0174C114.364 34.247 108.722 36.0132 102.376 37.1198C100.563 37.436 98.6957 37.6976 96.778 37.9048C100.153 37.316 103.329 36.542 106.245 35.6152C109.16 34.6831 111.815 33.5983 114.148 32.3827C114.342 32.2791 114.542 32.1755 114.73 32.072C114.824 32.0229 114.924 31.9684 115.018 31.9139C115.113 31.8594 115.207 31.8103 115.301 31.7558C115.428 31.6849 115.55 31.6141 115.672 31.5432C115.866 31.4287 116.06 31.3142 116.254 31.1998C116.542 31.0253 116.82 30.8509 117.097 30.671C117.224 30.5892 117.346 30.5075 117.468 30.4257C117.612 30.3276 117.756 30.2294 117.895 30.1313C118.105 29.9841 118.311 29.837 118.51 29.6898C118.643 29.5917 118.776 29.4935 118.904 29.39C118.987 29.33 119.064 29.2646 119.147 29.1992C119.247 29.1174 119.347 29.0411 119.441 28.9593C119.535 28.883 119.624 28.8067 119.713 28.7358C119.796 28.6649 119.874 28.5995 119.957 28.5287C120.084 28.4142 120.212 28.3052 120.339 28.1907C120.472 28.0708 120.605 27.9454 120.733 27.8255C120.744 27.8145 120.749 27.8091 120.76 27.7982C120.816 27.7437 120.866 27.6946 120.921 27.6401C121.026 27.5365 121.132 27.4275 121.237 27.3239C121.259 27.3021 121.276 27.2858 121.292 27.264C121.315 27.2367 121.342 27.2095 121.364 27.1877C121.409 27.144 121.453 27.095 121.492 27.0514C121.586 26.9533 121.675 26.8497 121.769 26.7461C121.852 26.648 121.941 26.5499 122.024 26.4517C122.212 26.2282 122.39 26.0047 122.556 25.7812C122.639 25.6722 122.722 25.5577 122.8 25.4487C122.822 25.416 122.844 25.3833 122.866 25.3506C123.049 25.0889 123.221 24.8218 123.376 24.5547C123.587 24.2004 123.775 23.8406 123.936 23.4754C124.529 22.1725 124.829 20.8206 124.795 19.4469C124.79 19.2888 124.784 19.1307 124.773 18.9781C124.773 18.9454 124.768 18.9127 124.768 18.88C124.768 18.8527 124.762 18.8255 124.762 18.7982C124.756 18.7601 124.756 18.7219 124.751 18.6837C124.751 18.6674 124.745 18.6456 124.745 18.6292C124.74 18.5856 124.734 18.5475 124.729 18.5039C124.729 18.4821 124.723 18.4602 124.718 18.4384C124.712 18.3948 124.707 18.3512 124.701 18.3131C124.684 18.1986 124.662 18.0896 124.64 17.9751C124.629 17.9206 124.618 17.8661 124.607 17.8061C124.596 17.7516 124.585 17.6971 124.574 17.648C124.574 17.6426 124.574 17.6426 124.574 17.6371C124.562 17.5826 124.546 17.5281 124.535 17.4736C124.518 17.4191 124.507 17.3646 124.49 17.31C124.413 17.032 124.324 16.7595 124.224 16.4924C124.208 16.4487 124.191 16.4051 124.174 16.3615C124.13 16.2471 124.08 16.1271 124.03 16.0126C124.008 15.9636 123.986 15.9145 123.964 15.8655C123.947 15.8273 123.931 15.7946 123.914 15.7564C123.892 15.7019 123.864 15.6529 123.836 15.5984C123.809 15.5384 123.775 15.4784 123.748 15.4185C123.737 15.3967 123.726 15.3749 123.714 15.3476C123.687 15.2931 123.659 15.2386 123.626 15.1841C123.576 15.0914 123.526 15.0042 123.471 14.9115C123.387 14.7643 123.299 14.6226 123.205 14.4809C123.116 14.3391 123.016 14.1974 122.916 14.0557C122.866 13.9848 122.817 13.9139 122.767 13.8431C122.612 13.6305 122.451 13.4233 122.279 13.2162C122.052 12.9382 121.813 12.6656 121.558 12.3985C121.425 12.2622 121.292 12.1205 121.154 11.9842C121.076 11.9079 120.999 11.8316 120.916 11.7552C120.755 11.6026 120.589 11.45 120.422 11.3028C120.339 11.2265 120.25 11.1502 120.162 11.0793C119.813 10.7795 119.447 10.4906 119.064 10.2016C119.009 10.158 118.953 10.1199 118.898 10.0763C118.782 9.98904 118.66 9.90182 118.543 9.82006C118.222 9.5911 117.889 9.36761 117.54 9.1441C117.318 9.00237 117.091 8.86064 116.858 8.71891C116.792 8.68075 116.725 8.63714 116.659 8.59898C116.626 8.57718 116.592 8.56082 116.559 8.53902C116.459 8.47905 116.36 8.42454 116.254 8.36458C116.155 8.30462 116.049 8.2501 115.949 8.19014C115.844 8.13018 115.744 8.07566 115.639 8.0157C115.428 7.90122 115.218 7.78675 115.002 7.67772C114.968 7.66137 114.93 7.63957 114.891 7.62321C114.819 7.58505 114.747 7.5469 114.675 7.51419C114.348 7.35065 114.01 7.18711 113.671 7.02358C113.483 6.93636 113.289 6.84914 113.101 6.76192C113.062 6.74557 113.023 6.72376 112.984 6.70741C112.923 6.68015 112.862 6.65289 112.807 6.63109C112.713 6.58748 112.613 6.54387 112.513 6.50571C112.436 6.473 112.352 6.43485 112.275 6.40214C112.086 6.32037 111.898 6.24405 111.704 6.16774C111.654 6.14593 111.599 6.12413 111.549 6.10232C111.305 6.0042 111.055 5.90608 110.806 5.80795C110.784 5.79705 110.756 5.7916 110.734 5.7807C110.518 5.69893 110.296 5.61171 110.074 5.52994C110.069 5.52994 110.058 5.52449 110.052 5.51904C110.019 5.50814 109.991 5.49723 109.958 5.48633C109.736 5.40456 109.509 5.3228 109.282 5.24648C109.154 5.20287 109.021 5.15926 108.888 5.1102C108.755 5.06659 108.622 5.02298 108.495 4.97937C108.262 4.90305 108.024 4.82673 107.785 4.75042C107.619 4.6959 107.453 4.64684 107.287 4.59233C107.148 4.54872 107.015 4.51056 106.876 4.46695C106.738 4.4288 106.599 4.38519 106.461 4.34703C105.995 4.21075 105.518 4.07992 105.036 3.95454C104.876 3.91093 104.715 3.87277 104.554 3.82916C104.371 3.78555 104.188 3.73649 104.005 3.69288C103.917 3.67107 103.834 3.64927 103.745 3.62746C103.728 3.62201 103.712 3.61656 103.689 3.61656C103.518 3.57295 103.346 3.53479 103.168 3.49664C103.074 3.47483 102.98 3.45303 102.886 3.43122C102.797 3.40942 102.708 3.39306 102.62 3.37126C102.32 3.30584 102.021 3.24043 101.722 3.18046C101.633 3.16411 101.55 3.14231 101.461 3.12595C101.267 3.08779 101.079 3.04964 100.885 3.01148C100.785 2.98967 100.691 2.97332 100.597 2.95696C100.497 2.94061 100.403 2.91881 100.303 2.90245C100.203 2.8861 100.109 2.86429 100.009 2.84794C99.4883 2.74982 98.9617 2.6626 98.4296 2.57538C98.3243 2.55902 98.2135 2.54267 98.1082 2.52632C97.7756 2.47181 97.4375 2.42274 97.105 2.37368C97.0717 2.36823 97.0329 2.36278 96.9997 2.35733C95.8745 2.19379 94.7328 2.05751 93.5633 1.94304C93.253 1.91033 92.937 1.88307 92.6211 1.85582C92.4327 1.83946 92.2442 1.82311 92.0558 1.80676C91.6733 1.77405 91.2909 1.74679 90.9085 1.71954C90.781 1.70863 90.6535 1.70318 90.5261 1.69228C90.1824 1.67048 89.8388 1.64867 89.4951 1.63232C89.1515 1.61596 88.8023 1.59961 88.4587 1.58326C88.3201 1.5778 88.176 1.57235 88.0319 1.5669C86.9511 1.49604 85.8482 1.44698 84.7397 1.41427C83.6312 1.38156 82.5061 1.37066 81.3754 1.38156C79.9787 1.43062 78.2494 1.47968 76.6255 1.5669C76.631 1.5669 76.6421 1.5669 76.6532 1.56145C76.6532 1.56145 76.6532 1.56145 76.6587 1.56145C80.278 1.01633 84.1744 0.836438 88.1428 0.749218C90.4817 0.700157 92.7763 0.738316 95.0099 0.852792C114.846 1.90488 130.122 9.3349 130.332 18.6783Z" fill="#EA2427"/>
<path d="M75.4227 39.1804C75.855 39.1967 76.2874 39.2076 76.7252 39.2185C76.2929 39.2131 75.855 39.1967 75.4227 39.1804Z" fill="white"/>
<path d="M62.8413 37.5123C65.1137 38.052 67.5081 38.4935 70.0133 38.826C69.8803 38.8151 69.7472 38.7988 69.6087 38.7879C69.5976 38.7879 69.581 38.7824 69.5699 38.7824C69.4369 38.7715 69.3038 38.7552 69.1708 38.7443C69.1653 38.7443 69.1597 38.7443 69.1542 38.7443C68.4614 38.6679 67.7741 38.5862 67.0979 38.499C67.0868 38.499 67.0758 38.4935 67.0647 38.4935C66.9317 38.4772 66.8042 38.4608 66.6767 38.439C66.6656 38.439 66.6601 38.439 66.649 38.4335C65.9728 38.3409 65.3077 38.2427 64.6537 38.1337C64.6426 38.1337 64.6371 38.1283 64.626 38.1283C64.4985 38.1065 64.3766 38.0847 64.2491 38.0683C64.238 38.0683 64.2269 38.0629 64.2158 38.0629C63.5618 37.9538 62.9189 37.8339 62.2815 37.714C62.2704 37.714 62.2593 37.7085 62.2538 37.7085C62.1319 37.6867 62.0155 37.6595 61.8935 37.6377C61.8824 37.6322 61.8658 37.6322 61.8547 37.6268C61.2229 37.5014 60.6021 37.3651 59.9925 37.2234C59.9814 37.2234 59.9758 37.2179 59.9648 37.2179C59.8539 37.1907 59.7375 37.1634 59.6267 37.1362C59.61 37.1307 59.5934 37.1252 59.5768 37.1252C59.4659 37.098 59.3495 37.0707 59.2387 37.0435C59.2276 37.0435 59.2221 37.038 59.211 37.038C58.7288 36.9236 58.2577 36.8036 57.7866 36.6782C57.7755 36.6782 57.7644 36.6728 57.7533 36.6673C57.648 36.6401 57.5427 36.6128 57.4318 36.5801C57.4097 36.5747 57.393 36.5692 57.3709 36.5638C57.2656 36.5365 57.1603 36.5038 57.0549 36.4766C57.0383 36.4711 57.0217 36.4657 57.0106 36.4657C56.5561 36.3403 56.1072 36.2094 55.6638 36.0732C55.6527 36.0677 55.6416 36.0677 55.6305 36.0623C55.5308 36.0296 55.431 36.0023 55.3312 35.9696C55.3091 35.9641 55.2869 35.9532 55.2647 35.9478C55.1705 35.9151 55.0707 35.8878 54.9765 35.8551C54.9543 35.8497 54.9322 35.8388 54.91 35.8333C54.8102 35.8006 54.7105 35.7679 54.6107 35.7352H54.6052C54.2782 35.6262 53.9567 35.5226 53.6408 35.4081C53.6297 35.4027 53.6131 35.3972 53.602 35.3918C53.5133 35.3591 53.4191 35.3263 53.3304 35.2936C53.3027 35.2827 53.275 35.2718 53.2528 35.2664C53.1641 35.2337 53.081 35.2064 52.9923 35.1737C52.9646 35.1628 52.9369 35.1519 52.9092 35.1465C52.8205 35.1137 52.7318 35.081 52.6431 35.0483C52.6265 35.0429 52.6099 35.0374 52.5932 35.032C52.2995 34.923 52.0057 34.8085 51.7175 34.694C51.7009 34.6886 51.6898 34.6831 51.6732 34.6776C51.59 34.6449 51.5069 34.6122 51.4293 34.5795C51.4016 34.5686 51.3684 34.5577 51.3406 34.5414C51.263 34.5087 51.1854 34.476 51.1079 34.4487C51.0746 34.4378 51.0469 34.4214 51.0136 34.4105C50.936 34.3778 50.8584 34.3451 50.7808 34.3124C50.7531 34.3015 50.731 34.2906 50.7033 34.2797C50.4372 34.1652 50.1712 34.0508 49.9107 33.9363C49.894 33.9308 49.8774 33.9199 49.8553 33.9145C49.7832 33.8818 49.7056 33.8491 49.6336 33.8164C49.6003 33.8 49.567 33.7891 49.5338 33.7727C49.4617 33.74 49.3952 33.7073 49.3287 33.6746C49.2955 33.6583 49.2567 33.6419 49.2234 33.6256C49.1569 33.5929 49.0848 33.5601 49.0183 33.5274C48.9851 33.5111 48.9518 33.4947 48.9241 33.4784C48.8521 33.4457 48.7855 33.413 48.7135 33.3748C48.7024 33.3694 48.6913 33.3639 48.6747 33.3585C48.514 33.2821 48.3588 33.2058 48.2036 33.1241C48.1814 33.1131 48.1648 33.1022 48.1426 33.0913C48.0761 33.0586 48.0151 33.0259 47.9486 32.9932C47.9154 32.9769 47.8766 32.9551 47.8433 32.9387C47.7824 32.906 47.7214 32.8733 47.6604 32.846C47.6216 32.8242 47.5884 32.8079 47.5496 32.7861C47.4886 32.7534 47.4276 32.7207 47.3722 32.688C47.3334 32.6661 47.3002 32.6498 47.2614 32.628C47.2004 32.5953 47.1394 32.5626 47.084 32.5299C47.0508 32.5135 47.023 32.4972 46.9898 32.4808C46.8623 32.4099 46.7404 32.3391 46.6184 32.2737C46.5963 32.2573 46.5686 32.2464 46.5464 32.23C46.491 32.1973 46.4355 32.1646 46.3801 32.1319C46.3413 32.1101 46.3081 32.0883 46.2693 32.0665C46.2138 32.0338 46.164 32.0011 46.1085 31.9738C46.0697 31.952 46.0309 31.9302 45.9921 31.903C45.9423 31.8703 45.8868 31.843 45.8369 31.8103C45.7982 31.7885 45.7594 31.7612 45.7206 31.7394C45.6707 31.7067 45.6208 31.6795 45.5709 31.6468C45.5321 31.625 45.4933 31.5977 45.4545 31.5759C45.3603 31.5159 45.2716 31.456 45.1774 31.396C45.1386 31.3742 45.1053 31.347 45.0665 31.3251C45.0222 31.2924 44.9723 31.2652 44.928 31.2325C44.8892 31.2052 44.8504 31.178 44.8116 31.1562C44.7672 31.1234 44.7229 31.0962 44.6786 31.0635C44.6398 31.0362 44.601 31.009 44.5622 30.9817C44.5178 30.949 44.4735 30.9218 44.4292 30.889C44.3904 30.8618 44.3516 30.8345 44.3128 30.8073C44.2684 30.7746 44.2241 30.7473 44.1853 30.7146C44.1465 30.6874 44.1021 30.6546 44.0634 30.6274C44.0246 30.6001 43.9858 30.5674 43.9414 30.5402C43.8694 30.4857 43.7918 30.4311 43.7197 30.3766C43.6809 30.3494 43.6477 30.3221 43.6089 30.2894C43.5701 30.2567 43.5257 30.2294 43.4869 30.1967C43.4481 30.1695 43.4093 30.1368 43.3761 30.1095C43.3373 30.0768 43.2985 30.0496 43.2597 30.0169C43.2209 29.9841 43.1876 29.9569 43.1488 29.9296C43.11 29.8969 43.0712 29.8697 43.0324 29.837C42.9992 29.8097 42.9604 29.777 42.9271 29.7497C42.8883 29.717 42.8495 29.6843 42.8052 29.6516C42.772 29.6244 42.7387 29.5971 42.7054 29.5699C42.6389 29.5099 42.5724 29.4554 42.5059 29.3954C42.4782 29.3736 42.4505 29.3463 42.4228 29.3245C42.3784 29.2864 42.3396 29.2482 42.2953 29.2101C42.262 29.1828 42.2343 29.1556 42.2011 29.1283C42.1623 29.0956 42.1235 29.0574 42.0902 29.0247C42.057 28.9975 42.0293 28.9648 41.996 28.9375C41.9572 28.9048 41.924 28.8666 41.8852 28.8339C41.8574 28.8067 41.8242 28.7794 41.7965 28.7467C41.7577 28.7086 41.7189 28.6758 41.6856 28.6377C41.6579 28.6104 41.6302 28.5832 41.6025 28.5559C41.5471 28.5014 41.4972 28.4469 41.4473 28.3978C41.4196 28.3706 41.3974 28.3433 41.3697 28.3215C41.3254 28.2779 41.281 28.2288 41.2422 28.1852C41.2145 28.158 41.1923 28.1307 41.1702 28.1035C41.1369 28.0653 41.0981 28.0272 41.0649 27.989C41.0372 27.9617 41.015 27.9345 40.9873 27.9018C40.954 27.8636 40.9208 27.8255 40.8875 27.7873C40.8653 27.76 40.8376 27.7328 40.8155 27.7001C40.7822 27.6619 40.7489 27.6183 40.7157 27.5802C40.6935 27.5529 40.6713 27.5256 40.6492 27.5038C40.6048 27.4493 40.5605 27.3948 40.5217 27.3458C40.5106 27.3294 40.494 27.313 40.4829 27.2967C40.433 27.2367 40.3887 27.1768 40.3388 27.1113C40.3222 27.0841 40.3 27.0623 40.2834 27.035C40.2501 26.9914 40.2224 26.9533 40.1892 26.9097C40.167 26.8824 40.1504 26.8551 40.1282 26.8279C40.1005 26.7897 40.0672 26.7461 40.0395 26.708C40.0173 26.6807 40.0007 26.6534 39.9785 26.6262C39.9508 26.5826 39.9176 26.5444 39.8899 26.5008C39.8732 26.4736 39.8566 26.4517 39.8344 26.4245C39.8012 26.37 39.7679 26.3209 39.7291 26.2664C39.718 26.2501 39.707 26.2337 39.6959 26.2173C39.6515 26.1519 39.6127 26.0811 39.5684 26.0157C39.5518 25.9938 39.5407 25.972 39.5296 25.9502C39.5019 25.9012 39.4742 25.8576 39.4465 25.8085C39.4298 25.7812 39.4132 25.754 39.4021 25.7267C39.3799 25.6831 39.3522 25.6395 39.3301 25.5959C39.3134 25.5686 39.3024 25.5414 39.2857 25.5141C39.2636 25.4705 39.2358 25.4269 39.2137 25.3833C39.2026 25.3561 39.186 25.3288 39.1749 25.307C39.1472 25.2525 39.1195 25.2034 39.0973 25.1489C39.0862 25.1326 39.0807 25.1107 39.0696 25.0944C39.0363 25.0235 39.0031 24.9527 38.9698 24.8818C38.9587 24.8654 38.9532 24.8436 38.9421 24.8218C38.9199 24.7728 38.8978 24.7183 38.8756 24.6692C38.8645 24.6419 38.8534 24.6147 38.8423 24.5929C38.8257 24.5493 38.8035 24.5002 38.7869 24.4566C38.7758 24.4293 38.7647 24.4021 38.7536 24.3748C38.737 24.3312 38.7204 24.2822 38.7038 24.2386C38.6927 24.2113 38.6816 24.184 38.6761 24.1622C38.6594 24.1077 38.6373 24.0587 38.6206 24.0042C38.6151 23.9823 38.6095 23.966 38.5985 23.9442C38.5763 23.8733 38.5486 23.8025 38.5264 23.7261C38.5209 23.7098 38.5153 23.6934 38.5098 23.6771C38.4932 23.6226 38.4765 23.5626 38.4599 23.5081C38.4544 23.4808 38.4488 23.459 38.4377 23.4318C38.4266 23.3827 38.41 23.3336 38.3989 23.29C38.3934 23.2628 38.3823 23.2355 38.3768 23.2083C38.3657 23.1592 38.3546 23.1156 38.3435 23.0665C38.338 23.0393 38.3324 23.012 38.3269 22.9848C38.3158 22.9357 38.3047 22.8812 38.2936 22.8267C38.2881 22.8049 38.2825 22.7831 38.2825 22.7613C38.2659 22.6904 38.2548 22.6141 38.2437 22.5378C38.2437 22.5269 38.2382 22.5214 38.2382 22.5105C38.2271 22.4451 38.216 22.3797 38.2105 22.3143C38.2049 22.2925 38.2049 22.2652 38.1994 22.238C38.1939 22.1889 38.1883 22.1398 38.1828 22.0853C38.1772 22.0581 38.1772 22.0308 38.1717 22.0035C38.1661 21.9545 38.1606 21.9054 38.1606 21.8564C38.1551 21.8291 38.1551 21.8019 38.1551 21.7746C38.1495 21.7201 38.1495 21.671 38.144 21.622L38.1384 21.5511C38.1329 21.4748 38.1329 21.3985 38.1329 21.3276C38.0498 17.5717 40.4496 14.023 44.6453 10.9921C45.0167 10.725 45.3991 10.4633 45.7981 10.2016C46.0642 10.0272 46.3358 9.85822 46.6129 9.68923C46.89 9.52025 47.1727 9.35671 47.4609 9.18772C47.7491 9.02418 48.0429 8.86065 48.3422 8.69711C48.6414 8.53902 48.9463 8.38094 49.2622 8.22285C49.4174 8.14654 49.5781 8.06477 49.7333 7.98845C49.9827 7.86852 50.2377 7.7486 50.4926 7.62867C50.9083 7.43788 51.3351 7.24708 51.7674 7.06174C52.0057 6.95817 52.2496 6.86005 52.4935 6.75647C52.5877 6.71831 52.6819 6.68016 52.7706 6.642C52.8593 6.60384 52.9535 6.57113 53.0477 6.53297C53.1863 6.47846 53.3193 6.42395 53.4579 6.36944C53.5743 6.32583 53.6907 6.28222 53.807 6.23861C53.8403 6.2277 53.8791 6.21135 53.9124 6.20045C54.0343 6.15684 54.1562 6.10778 54.2782 6.06417C54.4167 6.01511 54.5553 5.96605 54.6938 5.91153C54.8047 5.87337 54.9211 5.82976 55.0375 5.79161C55.104 5.7698 55.1705 5.74255 55.237 5.72074C55.3201 5.69348 55.3977 5.66623 55.4809 5.63897C55.6416 5.58446 55.8023 5.52995 55.9686 5.47544C56.1903 5.39912 56.412 5.32825 56.6393 5.25739C56.7335 5.22468 56.8277 5.19742 56.9219 5.16472C56.9496 5.15381 56.9829 5.14291 57.0106 5.13746C57.1325 5.0993 57.26 5.06114 57.382 5.02298C57.4485 5.00118 57.5205 4.97937 57.587 4.95757C57.6702 4.93031 57.7533 4.90851 57.842 4.88125C57.9196 4.85945 57.9916 4.83764 58.0692 4.81584C58.1357 4.79403 58.2078 4.77768 58.2743 4.75587C58.3851 4.72317 58.496 4.69046 58.6068 4.65775C58.7509 4.61414 58.9006 4.57598 59.0447 4.53237C59.1999 4.48876 59.3606 4.44515 59.5158 4.40154C61.2894 4.10173 67.2365 2.6408 69.265 2.67896C68.6554 2.80433 68.0457 2.92426 67.4416 3.02784C63.3346 3.73649 59.2664 5.04479 55.5973 6.73467C53.4911 7.70499 51.518 8.79523 49.7444 9.96725C44.5954 13.3906 41.1702 17.5281 41.2589 21.3276C41.4196 28.4523 50.088 34.4869 62.8025 37.5068C62.8136 37.5068 62.8247 37.5068 62.8413 37.5123Z" fill="#C9CAC9"/>
<path d="M82.2179 39.1858C82.0183 39.1912 81.8188 39.1967 81.6248 39.2021C81.4087 39.2076 81.1925 39.213 80.9764 39.2185C80.7602 39.224 80.5496 39.224 80.3334 39.2294C80.2669 39.2294 80.2059 39.2294 80.1394 39.2349C79.9842 39.2349 79.8291 39.2403 79.6739 39.2403C79.6074 39.2403 79.5408 39.2403 79.4743 39.2403C79.297 39.2403 79.1196 39.2403 78.9478 39.2403C78.909 39.2403 78.8757 39.2403 78.837 39.2403C78.6208 39.2403 78.4046 39.2403 78.1885 39.2349C78.1497 39.2349 78.1053 39.2349 78.0665 39.2349C77.8892 39.2349 77.7174 39.2294 77.54 39.2294C77.4846 39.2294 77.4292 39.2294 77.3737 39.2294C77.1964 39.224 77.0246 39.224 76.8527 39.2185C76.8139 39.2185 76.7751 39.2185 76.7363 39.2185C76.2985 39.2076 75.8662 39.1967 75.4339 39.1803C75.4006 39.1803 75.3618 39.1749 75.3286 39.1749C75.1401 39.1694 74.9517 39.1585 74.7688 39.1531L74.6745 39.1476C74.2311 39.1258 73.7933 39.104 73.3554 39.0822C73.3499 39.0822 73.3443 39.0822 73.3388 39.0822C73.1282 39.0713 72.9176 39.055 72.707 39.0441C72.6903 39.0441 72.6682 39.0386 72.6515 39.0386C71.992 38.995 71.338 38.9459 70.6895 38.886C70.684 38.886 70.6729 38.886 70.6673 38.886C70.4512 38.8642 70.235 38.8478 70.0244 38.826C67.5247 38.4935 65.1248 38.0519 62.8524 37.5123C63.7614 37.6922 64.6981 37.8611 65.6458 38.0138C65.7401 38.0301 65.8287 38.041 65.923 38.0574C66.0227 38.0737 66.1225 38.0901 66.2223 38.101C66.2721 38.1065 66.322 38.1174 66.3719 38.1228C66.4107 38.1283 66.455 38.1337 66.4938 38.1392C66.516 38.1446 66.5326 38.1446 66.5548 38.1501C66.6158 38.161 66.6767 38.1664 66.7377 38.1773C66.8596 38.1937 66.9816 38.2155 67.1035 38.2318C67.1423 38.2373 67.1866 38.2427 67.2254 38.2482C67.2864 38.2591 67.3474 38.2645 67.4083 38.2754C67.4305 38.2809 67.4471 38.2809 67.4693 38.2863C67.5081 38.2918 67.5524 38.2972 67.5912 38.3027C67.63 38.3081 67.6744 38.3136 67.7132 38.319C67.752 38.3245 67.7963 38.33 67.8351 38.3354C67.957 38.3518 68.0845 38.3681 68.2065 38.3845C68.2397 38.3899 68.273 38.3954 68.3118 38.3954C68.4004 38.4063 68.4947 38.4172 68.5834 38.4281C68.5889 38.4281 68.5889 38.4281 68.5944 38.4281C68.733 38.4444 68.8716 38.4608 69.0101 38.4771C69.0378 38.4826 69.0655 38.4826 69.0933 38.488C69.1376 38.4935 69.1819 38.4989 69.2263 38.5044C69.2318 38.5044 69.2374 38.5044 69.2484 38.5044C69.3039 38.5098 69.3648 38.5153 69.4258 38.5262C69.5256 38.5371 69.6253 38.548 69.7251 38.5589C69.8858 38.5753 70.0466 38.5971 70.2073 38.6134C70.3403 38.6298 70.4789 38.6407 70.6119 38.657C70.6174 38.657 70.6174 38.657 70.623 38.657C70.9611 38.6897 71.2992 38.7224 71.6373 38.7551C71.6428 38.7551 71.6483 38.7551 71.6539 38.7551C72.2691 38.8097 72.8954 38.8642 73.5217 38.9078C73.9374 38.935 74.3531 38.9677 74.7743 38.9895C74.7965 38.9895 74.8187 38.9895 74.8408 38.995C75.1678 39.0114 75.4948 39.0332 75.8218 39.0495C75.8551 39.0495 75.8884 39.055 75.9216 39.055C76.2431 39.0713 76.5701 39.0822 76.8915 39.0986C76.9248 39.0986 76.958 39.0986 76.9913 39.104C77.3239 39.1149 77.6564 39.1258 77.9889 39.1367C78.0167 39.1367 78.0388 39.1367 78.061 39.1367C78.4157 39.1476 78.776 39.1531 79.1307 39.1585C79.9565 39.1803 80.7879 39.1858 81.6304 39.1858C81.8244 39.1912 82.0183 39.1912 82.2179 39.1858Z" fill="#C9CAC9"/>
<path d="M91.1024 38.8424C91.3463 38.8097 91.5957 38.777 91.8396 38.7443C91.3408 38.8042 90.72 38.8751 90.2212 38.9351C90.5316 38.9023 90.8253 38.8751 91.1024 38.8424Z" fill="white"/>
<path d="M92.9037 38.5862C92.743 38.6243 92.3051 38.6898 91.7897 38.7661C86.8292 39.5129 78.9921 40.1507 73.3 40.2761C50.2266 40.7721 31.371 33.3094 31.1382 22.9139C30.9553 14.5626 42.8717 7.21983 59.5269 4.40155C59.3717 4.44516 59.211 4.48877 59.0558 4.53238C58.9117 4.57054 58.762 4.61415 58.6179 4.65776C58.5071 4.69047 58.3962 4.72317 58.2854 4.75588C58.2188 4.77768 58.1468 4.79404 58.0803 4.81584C58.0027 4.83765 57.9306 4.85945 57.853 4.88126C57.7699 4.90851 57.6812 4.93032 57.5981 4.95758C57.5316 4.97938 57.4595 5.00119 57.393 5.02299C57.2711 5.06115 57.1436 5.09931 57.0217 5.13747C56.994 5.14837 56.9607 5.15382 56.933 5.16472C56.8388 5.19198 56.7445 5.22469 56.6503 5.25739C56.4231 5.32826 56.2014 5.40458 55.9797 5.47544C55.8189 5.52995 55.6527 5.58447 55.4919 5.63898C55.4088 5.66623 55.3312 5.69349 55.2481 5.72075C55.1816 5.74255 55.1151 5.76436 55.0485 5.79161C54.9322 5.82977 54.8213 5.87338 54.7049 5.91154C54.5663 5.9606 54.4278 6.00966 54.2892 6.06417C54.1673 6.10778 54.0454 6.15684 53.9234 6.20045C53.8902 6.21136 53.8514 6.22771 53.8181 6.23861C53.7017 6.28222 53.5853 6.32583 53.4689 6.36944C53.3304 6.42396 53.1918 6.47847 53.0588 6.53298C52.9646 6.57114 52.8759 6.60385 52.7817 6.642C52.6874 6.68016 52.5932 6.71832 52.5045 6.75648C52.2607 6.8546 52.0168 6.95817 51.7785 7.06175C51.3462 7.24709 50.9194 7.43788 50.5037 7.62868C50.2487 7.7486 49.9938 7.86853 49.7444 7.98846C49.5837 8.06477 49.4285 8.14109 49.2733 8.22286C48.9629 8.38094 48.6581 8.53903 48.3532 8.69712C48.0539 8.8552 47.7602 9.01874 47.472 9.18773C47.1838 9.35126 46.9011 9.52025 46.624 9.68924C46.3468 9.85823 46.0753 10.0272 45.8092 10.2017C45.4102 10.4579 45.0277 10.725 44.6564 10.9921C40.4663 14.0066 38.0719 17.5554 38.155 21.3112C38.155 21.3876 38.1606 21.4639 38.1606 21.5347L38.1661 21.6056C38.1717 21.6547 38.1717 21.7092 38.1772 21.7583C38.1772 21.7855 38.1827 21.8128 38.1827 21.84C38.1883 21.8891 38.1938 21.9381 38.1938 21.9872C38.1994 22.0145 38.1994 22.0417 38.2049 22.069C38.2105 22.118 38.216 22.1671 38.2215 22.2216C38.2271 22.2489 38.2271 22.2707 38.2326 22.2979C38.2437 22.3633 38.2493 22.4288 38.2603 22.4942C38.2603 22.5051 38.2659 22.516 38.2659 22.5214C38.277 22.5977 38.2936 22.6686 38.3047 22.7449C38.3102 22.7667 38.3158 22.7885 38.3158 22.8103C38.3269 22.8594 38.3379 22.9139 38.349 22.9684C38.3546 22.9957 38.3601 23.0229 38.3657 23.0502C38.3767 23.0993 38.3878 23.1429 38.3989 23.1919C38.4044 23.2192 38.4155 23.2464 38.4211 23.2737C38.4322 23.3228 38.4488 23.3718 38.4599 23.4154C38.4654 23.4427 38.471 23.4645 38.482 23.4917C38.4987 23.5463 38.5153 23.6062 38.5319 23.6607C38.5375 23.6771 38.543 23.6934 38.5486 23.7098C38.5707 23.7807 38.5929 23.8515 38.6206 23.9278C38.6261 23.9496 38.6317 23.966 38.6428 23.9878C38.6594 24.0423 38.6816 24.0914 38.6982 24.1459C38.7093 24.1731 38.7204 24.2004 38.7259 24.2222C38.7425 24.2658 38.7592 24.3149 38.7758 24.3585C38.7869 24.3857 38.798 24.413 38.8091 24.4403C38.8257 24.4839 38.8478 24.5329 38.8645 24.5765C38.8756 24.6038 38.8866 24.631 38.8977 24.6529C38.9199 24.7019 38.9421 24.7564 38.9642 24.8055C38.9753 24.8218 38.9809 24.8436 38.992 24.8654C39.0252 24.9363 39.0585 25.0072 39.0917 25.078C39.1028 25.0944 39.1083 25.1162 39.1194 25.1326C39.1471 25.1871 39.1693 25.2361 39.197 25.2906C39.2081 25.3179 39.2247 25.3452 39.2358 25.367C39.258 25.4106 39.2802 25.4542 39.3079 25.4978C39.3245 25.525 39.3356 25.5523 39.3522 25.5796C39.3744 25.6232 39.4021 25.6668 39.4243 25.7104C39.4409 25.7376 39.4575 25.7649 39.4686 25.7922C39.4963 25.8412 39.524 25.8848 39.5517 25.9339C39.5684 25.9557 39.5795 25.9775 39.5905 25.9993C39.6293 26.0647 39.6737 26.1356 39.718 26.201C39.7291 26.2174 39.7402 26.2337 39.7513 26.2501C39.7845 26.3046 39.8178 26.3536 39.8566 26.4081C39.8732 26.4354 39.8898 26.4572 39.912 26.4845C39.9397 26.5281 39.9674 26.5717 40.0007 26.6098C40.0229 26.6371 40.0395 26.6644 40.0617 26.6916C40.0894 26.7298 40.1226 26.7734 40.1503 26.8115C40.1725 26.8388 40.1891 26.866 40.2113 26.8933C40.2446 26.9369 40.2723 26.9805 40.3055 27.0187C40.3222 27.0459 40.3443 27.0677 40.3609 27.095C40.4053 27.155 40.4552 27.2149 40.5051 27.2803C40.5161 27.2967 40.5328 27.313 40.5439 27.3294C40.5882 27.3839 40.6325 27.4384 40.6713 27.4875C40.6935 27.5147 40.7157 27.542 40.7378 27.5638C40.7711 27.602 40.8043 27.6456 40.8376 27.6837C40.8598 27.711 40.8875 27.7382 40.9097 27.771C40.9429 27.8091 40.9762 27.8473 41.0094 27.8854C41.0371 27.9127 41.0593 27.9399 41.087 27.9726C41.1203 28.0108 41.1591 28.049 41.1923 28.0871C41.2145 28.1144 41.2422 28.1416 41.2644 28.1689C41.3087 28.2125 41.3531 28.2616 41.3919 28.3052C41.4196 28.3324 41.4417 28.3597 41.4694 28.3815C41.5193 28.436 41.5748 28.4905 41.6246 28.5396C41.6523 28.5668 41.6801 28.5941 41.7078 28.6213C41.7466 28.6595 41.7798 28.6977 41.8186 28.7304C41.8463 28.7576 41.8796 28.7903 41.9073 28.8176C41.9406 28.8503 41.9794 28.8885 42.0182 28.9212C42.0514 28.9484 42.0791 28.9811 42.1124 29.0084C42.1512 29.0411 42.1844 29.0792 42.2232 29.112C42.2565 29.1392 42.2842 29.1665 42.3174 29.1937C42.3618 29.2319 42.4006 29.27 42.4449 29.3082C42.4726 29.33 42.5003 29.3573 42.5281 29.3791C42.5946 29.439 42.6611 29.4935 42.7276 29.5535C42.7608 29.5808 42.7941 29.608 42.8274 29.6353C42.8662 29.668 42.9049 29.7007 42.9493 29.7334C42.9825 29.7607 43.0213 29.7934 43.0546 29.8206C43.0934 29.8533 43.1322 29.8806 43.171 29.9133C43.2098 29.946 43.243 29.9732 43.2818 30.0005C43.3206 30.0332 43.3594 30.0605 43.3982 30.0932C43.437 30.1204 43.4758 30.1531 43.5091 30.1804C43.5479 30.2131 43.5922 30.2404 43.631 30.2731C43.6698 30.3003 43.7031 30.3276 43.7419 30.3603C43.8139 30.4148 43.886 30.4693 43.9636 30.5238C44.0024 30.5511 44.0412 30.5838 44.0855 30.611C44.1243 30.6383 44.1631 30.671 44.2074 30.6983C44.2518 30.731 44.2906 30.7582 44.3349 30.7909C44.3737 30.8182 44.4125 30.8454 44.4513 30.8727C44.4956 30.9054 44.54 30.9327 44.5843 30.9654C44.6231 30.9926 44.6619 31.0199 44.7007 31.0471C44.7451 31.0798 44.7894 31.1071 44.8337 31.1398C44.8725 31.1671 44.9113 31.1943 44.9501 31.2161C44.9945 31.2488 45.0444 31.2761 45.0887 31.3088C45.1219 31.3306 45.1607 31.3579 45.1995 31.3797C45.2882 31.4396 45.3824 31.4996 45.4767 31.5596C45.5155 31.5814 45.5543 31.6086 45.5931 31.6304C45.6429 31.6631 45.6928 31.6904 45.7427 31.7231C45.7815 31.7449 45.8203 31.7722 45.8591 31.794C45.909 31.8267 45.9589 31.8539 46.0143 31.8866C46.0531 31.9084 46.0919 31.9302 46.1307 31.9575C46.1861 31.9902 46.236 32.0229 46.2914 32.0502C46.3302 32.072 46.3635 32.0938 46.4023 32.1156C46.4577 32.1483 46.5131 32.181 46.5685 32.2137C46.5907 32.2301 46.6184 32.241 46.6406 32.2573C46.7625 32.3282 46.8845 32.399 47.0119 32.4645C47.0396 32.4808 47.0729 32.4972 47.1062 32.5135C47.1671 32.5462 47.2225 32.5789 47.2835 32.6116C47.3223 32.6334 47.3556 32.6498 47.3944 32.6716C47.4553 32.7043 47.5163 32.737 47.5717 32.7697C47.6105 32.7915 47.6438 32.8079 47.6826 32.8297C47.7435 32.8624 47.8045 32.8951 47.8655 32.9224C47.8987 32.9387 47.9375 32.9605 47.9708 32.9769C48.0373 33.0096 48.0983 33.0423 48.1648 33.075C48.1869 33.0859 48.2036 33.0968 48.2257 33.1077C48.3809 33.184 48.5361 33.2658 48.6968 33.3421C48.7079 33.3476 48.719 33.353 48.7356 33.3585C48.8077 33.3912 48.8742 33.4239 48.9463 33.462C48.9795 33.4784 49.0128 33.4947 49.0405 33.5111C49.107 33.5438 49.179 33.5765 49.2456 33.6092C49.2788 33.6256 49.3176 33.6419 49.3509 33.6583C49.4174 33.691 49.4894 33.7237 49.5559 33.7564C49.5892 33.7728 49.6224 33.7837 49.6557 33.8C49.7278 33.8327 49.7998 33.8654 49.8774 33.8981C49.894 33.9036 49.9107 33.9145 49.9328 33.9199C50.1933 34.0344 50.4594 34.1489 50.7254 34.2634C50.7531 34.2743 50.7753 34.2852 50.803 34.2961C50.8806 34.3288 50.9582 34.3615 51.0358 34.3942C51.069 34.4051 51.0967 34.4214 51.13 34.4324C51.2076 34.4651 51.2852 34.4978 51.3628 34.525C51.3905 34.5359 51.4238 34.5468 51.4515 34.5632C51.5346 34.5959 51.6177 34.6286 51.6953 34.6613C51.712 34.6667 51.7231 34.6722 51.7397 34.6777C52.0279 34.7921 52.3216 34.9012 52.6154 35.0156C52.632 35.0211 52.6486 35.0265 52.6653 35.032C52.754 35.0647 52.8426 35.0974 52.9313 35.1301C52.959 35.141 52.9867 35.1519 53.0145 35.1574C53.1031 35.1901 53.1863 35.2173 53.2749 35.25C53.3027 35.2609 53.3304 35.2718 53.3525 35.2773C53.4412 35.31 53.5354 35.3427 53.6241 35.3754C53.6352 35.3809 53.6518 35.3863 53.6629 35.3918C53.9788 35.5008 54.3003 35.6098 54.6273 35.7188H54.6329C54.7326 35.7515 54.8324 35.7843 54.9321 35.817C54.9543 35.8224 54.9765 35.8279 54.9987 35.8388C55.0929 35.8715 55.1871 35.8987 55.2869 35.9314C55.309 35.9369 55.3312 35.9478 55.3534 35.9532C55.4531 35.9859 55.5529 36.0132 55.6527 36.0459C55.6638 36.0514 55.6748 36.0514 55.6859 36.0568C56.1293 36.1931 56.5783 36.3239 57.0328 36.4493C57.0494 36.4548 57.066 36.4602 57.0771 36.4602C57.1824 36.4875 57.2877 36.5202 57.393 36.5474C57.4152 36.5529 57.4318 36.5583 57.454 36.5638C57.5593 36.591 57.6646 36.6237 57.7754 36.651C57.7865 36.6564 57.7976 36.6564 57.8087 36.6619C58.2743 36.7873 58.7509 36.9072 59.2331 37.0217C59.2442 37.0217 59.2497 37.0271 59.2608 37.0271C59.3717 37.0544 59.4881 37.0816 59.5989 37.1089C59.6156 37.1144 59.6322 37.1198 59.6488 37.1198C59.7597 37.1471 59.8761 37.1743 59.9869 37.2016C59.998 37.2016 60.0035 37.207 60.0146 37.207C60.6243 37.3488 61.245 37.4796 61.8769 37.6104C61.8935 37.6159 61.9046 37.6159 61.9157 37.6213C62.0376 37.6431 62.154 37.6704 62.2759 37.6922C62.287 37.6922 62.2981 37.6976 62.3037 37.6976C62.941 37.823 63.584 37.9375 64.238 38.0465C64.2491 38.0465 64.2602 38.052 64.2712 38.052C64.3987 38.0738 64.5207 38.0956 64.6481 38.1119C64.6592 38.1119 64.6648 38.1174 64.6758 38.1174C65.3354 38.2264 66.0005 38.3245 66.6711 38.4172C66.6822 38.4172 66.6878 38.4172 66.6989 38.4226C66.8263 38.439 66.9594 38.4554 67.0868 38.4772C67.0979 38.4772 67.109 38.4772 67.1201 38.4826C67.7963 38.5698 68.4835 38.6516 69.1763 38.7279C69.1819 38.7279 69.1874 38.7279 69.193 38.7279C69.326 38.7443 69.459 38.7552 69.592 38.7661C69.6031 38.7661 69.6198 38.7715 69.6308 38.7715C69.7639 38.7824 69.8969 38.7988 70.0354 38.8097C70.2516 38.8315 70.4677 38.8533 70.6784 38.8696C70.6839 38.8696 70.695 38.8696 70.7005 38.8696C71.349 38.9296 72.003 38.9787 72.6626 39.0223C72.6792 39.0223 72.7014 39.0223 72.718 39.0277C72.9286 39.0441 73.1392 39.055 73.3498 39.0659C73.3554 39.0659 73.3609 39.0659 73.3665 39.0659C73.8043 39.0931 74.2422 39.115 74.6856 39.1313L74.7798 39.1368C74.9682 39.1477 75.1567 39.1531 75.3396 39.1586C75.3729 39.1586 75.4116 39.1586 75.4449 39.164C75.8772 39.1804 76.3095 39.1913 76.7474 39.2022C76.7862 39.2022 76.825 39.2022 76.8638 39.2022C77.0356 39.2076 77.213 39.2076 77.3848 39.2131C77.4402 39.2131 77.4956 39.2131 77.551 39.2131C77.7284 39.2131 77.9002 39.2185 78.0776 39.2185C78.1164 39.2185 78.1607 39.2185 78.1995 39.2185C78.4157 39.2185 78.6318 39.2185 78.848 39.224C78.8868 39.224 78.92 39.224 78.9588 39.224C79.1362 39.224 79.3136 39.224 79.4854 39.224C79.5519 39.224 79.6184 39.224 79.6849 39.224C79.8401 39.224 79.9953 39.2185 80.1505 39.2185C80.217 39.2185 80.278 39.2185 80.3445 39.2131C80.5606 39.2076 80.7712 39.2076 80.9874 39.2022C81.2035 39.1967 81.4197 39.1913 81.6359 39.1858C81.8354 39.1804 82.0349 39.1749 82.2289 39.1695C82.4229 39.1695 82.6224 39.164 82.8164 39.164C82.9273 39.164 83.0381 39.1586 83.1434 39.1586C83.2432 39.1586 83.3485 39.1531 83.4483 39.1531C84.202 39.1368 84.9503 39.1095 85.693 39.0768C86.0643 39.0604 86.4357 39.0386 86.807 39.0168C87.1783 38.995 87.5442 38.9732 87.91 38.946C87.9266 38.946 87.9432 38.946 87.9598 38.9405C87.9986 38.9405 88.0374 38.9351 88.0818 38.9351C88.0873 38.9351 88.0984 38.9351 88.1039 38.9351C88.1095 38.9351 88.115 38.9351 88.1261 38.9351H88.1594C88.176 38.9351 88.1982 38.9351 88.2148 38.9296C88.2536 38.9242 88.2979 38.9242 88.3367 38.9242C88.5307 38.9133 88.758 38.8969 89.0018 38.8806C89.0406 38.8751 89.0794 38.8751 89.1238 38.8696C90.3653 38.7824 92.0336 38.6625 92.6876 38.6025C92.4049 38.6461 92.1278 38.6843 91.8451 38.7279C91.3463 38.7879 90.7255 38.8587 90.2267 38.9187C90.5426 38.886 90.8364 38.8533 91.1135 38.826C91.3574 38.7933 91.6068 38.7606 91.8507 38.7279C92.2386 38.6789 92.5601 38.6352 92.6931 38.6025C92.7541 38.608 92.8261 38.5971 92.9037 38.5862Z" fill="#4B71B6"/>
<path d="M92.6821 38.6189C92.3994 38.6625 92.1223 38.7007 91.8396 38.7388C92.2276 38.6952 92.549 38.6516 92.6821 38.6189Z" fill="white"/>
<path d="M85.6875 39.0931C84.9448 39.1258 84.1966 39.1531 83.4428 39.1695C83.3375 39.1695 83.2377 39.1749 83.1379 39.1749C83.2377 39.1749 83.343 39.1695 83.4428 39.1695C84.1966 39.1531 84.9448 39.1313 85.6875 39.0931Z" fill="white"/>
<path d="M82.8054 39.1804C82.6058 39.1858 82.4119 39.1858 82.2179 39.1858C82.0239 39.1858 81.8299 39.1858 81.6304 39.1858C81.8244 39.1858 82.0183 39.1858 82.2179 39.1858C82.4119 39.1858 82.6114 39.1858 82.8054 39.1804Z" fill="white"/>
<path d="M82.8441 39.164C82.6335 39.1695 82.4229 39.1804 82.2123 39.1858C82.0183 39.1858 81.8243 39.1858 81.6248 39.1858C80.7879 39.1858 79.951 39.1804 79.1251 39.1586C80.3556 39.1858 81.5915 39.1858 82.8441 39.164Z" fill="white"/>
<path d="M87.9044 38.9678C87.5386 38.995 87.1728 39.0168 86.8015 39.0386C86.4301 39.0604 86.0643 39.0768 85.6874 39.0986C84.9448 39.1313 84.1965 39.1586 83.4427 39.1749C83.343 39.1749 83.2377 39.1804 83.1379 39.1804C83.027 39.1804 82.9162 39.1858 82.8109 39.1858C82.6114 39.1913 82.4174 39.1913 82.2234 39.1913C82.434 39.1858 82.6446 39.1749 82.8552 39.1695C84.4736 39.1422 86.1198 39.0822 87.7825 38.9787C87.8158 38.9732 87.8601 38.9678 87.9044 38.9678Z" fill="white"/>
<path d="M88.1206 38.9514H88.1539C88.0818 38.9569 88.0153 38.9623 87.9543 38.9623C88.0042 38.9623 88.0597 38.9569 88.1206 38.9514Z" fill="white"/>
<path d="M88.2092 38.946C88.1926 38.946 88.1704 38.946 88.1538 38.9514C88.1594 38.9514 88.1649 38.9514 88.1704 38.9514L88.2092 38.946Z" fill="white"/>
<path d="M88.1206 38.9514C88.1372 38.9514 88.1539 38.9514 88.1705 38.946C88.1649 38.946 88.1594 38.946 88.1539 38.946L88.1206 38.9514Z" fill="white"/>
<path d="M90.4096 38.7824C89.9773 38.8206 89.5505 38.8533 89.1182 38.8805C89.0794 38.886 89.0406 38.886 88.9962 38.8914C88.7524 38.9078 88.5251 38.9241 88.3311 38.935C88.2923 38.9405 88.248 38.9405 88.2092 38.9405H88.1704C88.7025 38.9132 89.556 38.8533 90.4096 38.7824Z" fill="white"/>
<path d="M69.0877 38.4935C69.1986 38.5044 69.3039 38.5208 69.4147 38.5317C69.3039 38.5208 69.193 38.5044 69.0877 38.4935ZM68.2065 38.3845C68.3284 38.4009 68.4559 38.4172 68.5834 38.4336C68.4171 38.4118 68.2508 38.39 68.0845 38.3682C68.1233 38.3736 68.1621 38.3791 68.2065 38.3845ZM67.8351 38.3355C67.9183 38.3464 68.0014 38.3573 68.0845 38.3682C67.9183 38.3464 67.752 38.3246 67.5857 38.3027C67.6688 38.3137 67.752 38.3246 67.8351 38.3355ZM66.3608 38.1229C66.4827 38.1392 66.6047 38.161 66.7266 38.1774C66.8486 38.1937 66.9705 38.2155 67.0924 38.2319C67.2144 38.2482 67.3363 38.2646 67.4638 38.2864C67.5026 38.2918 67.5469 38.2973 67.5857 38.3027C67.0924 38.2373 66.5991 38.1665 66.1169 38.0901C66.2001 38.1011 66.2777 38.112 66.3608 38.1229Z" fill="white"/>
<path d="M118.649 11.4718C112.79 6.18957 101.5 2.42277 88.0263 1.56693C86.9455 1.49607 85.8426 1.44701 84.7341 1.4143C83.6256 1.38159 82.5005 1.37069 81.3698 1.38159C79.9731 1.43065 78.2438 1.47971 76.6199 1.56693C76.5866 1.57238 76.5423 1.57783 76.4924 1.58329C76.5368 1.57783 76.5811 1.57238 76.6144 1.56693C75.6389 1.62144 74.7133 1.77408 73.9096 1.8613C72.33 2.11205 70.7781 2.36826 69.2706 2.67898C68.6609 2.80436 68.0512 2.92429 67.4471 3.02786C63.3401 3.73652 59.2719 5.04481 55.6028 6.73469C53.4966 7.70501 51.5235 8.79526 49.7499 9.96727C44.5954 13.3906 41.1701 17.5281 41.2588 21.3276C41.4196 28.4524 50.088 34.4869 62.8025 37.5069C62.8634 37.5178 62.9189 37.5287 62.9798 37.5396C63.0075 37.545 63.0353 37.5505 63.063 37.5559C63.0962 37.5614 63.1295 37.5668 63.1572 37.5723C63.1627 37.5723 63.1738 37.5777 63.1794 37.5777C63.1905 37.5777 63.2071 37.5832 63.2182 37.5832C63.2902 37.5995 63.3623 37.6104 63.4343 37.6213C63.5175 37.6377 63.6006 37.654 63.6837 37.6704C63.6948 37.6704 63.7004 37.6758 63.7114 37.6758C63.8057 37.6922 63.8999 37.7085 63.9886 37.7249C64.0274 37.7304 64.0662 37.7413 64.105 37.7467C64.1271 37.7522 64.1493 37.7576 64.177 37.7576C64.1881 37.7576 64.1992 37.7631 64.2158 37.7631C64.2657 37.774 64.3156 37.7794 64.3655 37.7903C64.4264 37.8012 64.4929 37.8121 64.5539 37.823C64.565 37.823 64.5761 37.8285 64.5927 37.8285C64.6481 37.8394 64.7091 37.8503 64.7645 37.8557C64.8144 37.8666 64.8643 37.8721 64.9086 37.883C64.9696 37.8939 65.0361 37.9048 65.1026 37.9157C65.1137 37.9157 65.1248 37.9211 65.1414 37.9211C65.158 37.9266 65.1747 37.9266 65.1913 37.932C65.1968 37.932 65.2024 37.932 65.2135 37.9375C65.2412 37.943 65.2689 37.9484 65.2966 37.9539C65.3409 37.9593 65.3797 37.9702 65.4241 37.9757C65.4961 37.9866 65.5626 37.9975 65.6347 38.0084C65.7289 38.0247 65.8176 38.0356 65.9118 38.052C65.9783 38.0629 66.0504 38.0738 66.1169 38.0847H66.1224C66.2388 38.101 66.3608 38.1228 66.4771 38.1392C66.4993 38.1446 66.5159 38.1446 66.5381 38.1501C66.6379 38.1665 66.7432 38.1774 66.8429 38.1937C66.8429 38.1937 66.8429 38.1937 66.8485 38.1937C66.9704 38.2101 67.0924 38.2264 67.2143 38.2482C67.2753 38.2591 67.3362 38.2646 67.3972 38.2755C67.4582 38.2864 67.5191 38.2918 67.5801 38.3027C67.7464 38.3245 67.9127 38.3463 68.0789 38.3681C68.1177 38.3736 68.1621 38.3791 68.2009 38.3845C68.2341 38.39 68.2674 38.3954 68.3062 38.3954C68.3948 38.4063 68.4891 38.4172 68.5778 38.4281C68.5833 38.4281 68.5833 38.4281 68.5888 38.4281C68.7274 38.4445 68.866 38.4608 69.0045 38.4772C69.0267 38.4826 69.0544 38.4826 69.0766 38.4881C69.1209 38.4935 69.1708 38.499 69.2151 38.5044C69.2207 38.5044 69.2262 38.5044 69.2373 38.5044C69.2927 38.5099 69.3537 38.5153 69.4147 38.5262C69.5144 38.5371 69.6142 38.548 69.714 38.5589C69.8747 38.5753 70.0354 38.5971 70.1962 38.6134C70.3292 38.6298 70.4677 38.6407 70.6008 38.6571C70.6063 38.6571 70.6063 38.6571 70.6118 38.6571C70.9499 38.6898 71.288 38.7225 71.6261 38.7552C71.6317 38.7552 71.6372 38.7552 71.6427 38.7552C72.258 38.8097 72.8843 38.8642 73.5106 38.9078C73.9263 38.9351 74.3419 38.9678 74.7632 38.9896C74.7853 38.9896 74.8075 38.9896 74.8297 38.995C75.1567 39.0114 75.4837 39.0332 75.8107 39.0495C75.844 39.0495 75.8772 39.055 75.9105 39.055C76.2319 39.0714 76.5589 39.0823 76.8804 39.0986C76.9136 39.0986 76.9469 39.0986 76.9802 39.1041C77.3127 39.115 77.6453 39.1259 77.9778 39.1368C78.0055 39.1368 78.0277 39.1368 78.0499 39.1368C78.4046 39.1477 78.7648 39.1531 79.1196 39.1586C80.3444 39.1804 81.5804 39.1804 82.833 39.1586C84.4514 39.1313 86.0976 39.0714 87.7603 38.9678C87.8046 38.9623 87.849 38.9623 87.8933 38.9569C87.91 38.9569 87.9266 38.9569 87.9432 38.9514C87.982 38.9514 88.0208 38.946 88.0651 38.946C88.0818 38.946 88.0928 38.946 88.1095 38.9405C88.1261 38.9405 88.1427 38.9405 88.1594 38.9351C88.6914 38.8969 89.545 38.837 90.3985 38.7715C89.9662 38.8097 89.5394 38.8424 89.1071 38.8697C90.3486 38.7824 92.0169 38.6625 92.6709 38.6026C92.743 38.5916 92.815 38.5807 92.8926 38.5698C92.9314 38.5644 92.9647 38.5589 93.0035 38.5535C94.2783 38.3572 95.5309 38.1337 96.7502 37.8884C101.079 37.0108 105.036 35.8279 108.5 34.3997C109.188 34.1162 109.853 33.8218 110.501 33.522C118.294 29.886 123.071 24.9472 122.95 19.5941C122.944 19.4851 122.944 19.3761 122.933 19.2671C122.778 16.4597 121.254 13.8158 118.649 11.4718Z" fill="white"/>
<path d="M62.9964 37.5395C62.941 37.5286 62.8911 37.5177 62.8357 37.5068C62.8246 37.5014 62.8135 37.5014 62.7969 37.4959C62.8578 37.5068 62.9133 37.5177 62.9742 37.5286C62.9853 37.5395 62.9909 37.5395 62.9964 37.5395Z" fill="#C9CAC9"/>
<path d="M63.1572 37.5723C63.1794 37.5777 63.2016 37.5777 63.2182 37.5832C63.2071 37.5832 63.1905 37.5777 63.1794 37.5777C63.1739 37.5723 63.1628 37.5723 63.1572 37.5723Z" fill="#C9CAC9"/>
<path d="M65.1082 37.9211C65.147 37.9266 65.1802 37.932 65.219 37.9375C65.2135 37.9375 65.2079 37.9375 65.1968 37.932C65.1636 37.932 65.1359 37.9266 65.1082 37.9211Z" fill="#C9CAC9"/>
<path d="M64.9142 37.8884C64.9752 37.8993 65.0417 37.9102 65.1082 37.9211C64.4708 37.8121 63.8445 37.7031 63.2238 37.5831C63.2958 37.5995 63.3679 37.6104 63.4399 37.6213C63.8113 37.6922 64.1826 37.7576 64.5595 37.8284C64.6759 37.8502 64.7923 37.872 64.9142 37.8884Z" fill="#C9CAC9"/>
<path d="M68.0844 38.3681C68.2507 38.3899 68.417 38.4118 68.5833 38.4336C68.4558 38.4172 68.3338 38.4009 68.2064 38.3845C68.0844 38.3681 67.957 38.3518 67.835 38.3354C67.7131 38.3191 67.5856 38.3027 67.4637 38.2864C67.3417 38.27 67.2198 38.2537 67.0923 38.2319C66.9704 38.2155 66.8485 38.1992 66.7265 38.1773C66.6046 38.161 66.4826 38.1392 66.3607 38.1228C66.2776 38.1119 66.2 38.0956 66.1168 38.0847C65.9561 38.0574 65.7954 38.0356 65.6346 38.0084C65.7954 38.0356 65.9617 38.0574 66.1279 38.0847C66.6101 38.161 67.0979 38.2319 67.5911 38.2973C67.7519 38.3245 67.9182 38.3463 68.0844 38.3681Z" fill="#C9CAC9"/>
<path d="M69.0821 38.4935C69.193 38.5044 69.3038 38.5208 69.4147 38.5317C69.3038 38.5208 69.1985 38.5044 69.0821 38.4935Z" fill="#C9CAC9"/>
<path d="M66.7266 29.717H66.6933L66.6711 29.6135L66.7266 29.717Z" fill="black"/>
<path d="M4.65735 59.8903L4.34476 59.0824H1.68325L1.37066 59.9083C1.24872 60.2304 1.14452 60.4479 1.05806 60.5602C0.971598 60.6731 0.830265 60.7292 0.634061 60.7292C0.467232 60.7292 0.319802 60.6693 0.19177 60.5493C0.0637386 60.4294 0 60.2931 0 60.141C0 60.0533 0.0149647 59.9622 0.0443399 59.8685C0.0742693 59.7747 0.123043 59.6444 0.19177 59.4776L1.86616 55.2965C1.91382 55.1766 1.97091 55.0322 2.03797 54.8637C2.10504 54.6953 2.17653 54.5557 2.25247 54.4445C2.3284 54.3333 2.42816 54.2434 2.55176 54.1741C2.67536 54.1054 2.82778 54.0711 3.00957 54.0711C3.19414 54.0711 3.34822 54.1054 3.47181 54.1741C3.59541 54.2428 3.69518 54.3317 3.77111 54.4396C3.84704 54.5481 3.91078 54.6642 3.96288 54.789C4.01498 54.9133 4.08093 55.0796 4.16185 55.2873L5.87227 59.4422C6.00639 59.7584 6.07346 59.9884 6.07346 60.1318C6.07346 60.2811 6.01027 60.418 5.88335 60.5423C5.75643 60.6665 5.60401 60.7287 5.42554 60.7287C5.32134 60.7287 5.23211 60.7102 5.15784 60.6736C5.08357 60.6371 5.02094 60.5875 4.9705 60.5243C4.92007 60.4616 4.86575 60.3645 4.80755 60.2343C4.7488 60.1045 4.69892 59.9895 4.65735 59.8903ZM2.03188 58.1028H3.98782L3.00126 55.4459L2.03188 58.1028Z" fill="#131718"/>
<path d="M9.25652 59.6486L8.20732 55.5466V59.9909C8.20732 60.2368 8.15134 60.4216 8.03994 60.5442C7.92854 60.6669 7.78 60.7285 7.59543 60.7285C7.41696 60.7285 7.27064 60.6674 7.15758 60.5464C7.04451 60.4249 6.98798 60.2395 6.98798 59.9909V54.8962C6.98798 54.6149 7.06225 54.4258 7.21134 54.3277C7.36043 54.2295 7.56107 54.1805 7.81436 54.1805H8.22506C8.47225 54.1805 8.65128 54.2023 8.76324 54.2464C8.87519 54.2906 8.95778 54.3696 9.01098 54.4836C9.06475 54.5975 9.12571 54.7839 9.19389 55.0412L10.145 58.5676L11.0961 55.0412C11.1642 54.7834 11.2258 54.5975 11.279 54.4836C11.3327 54.3691 11.4153 54.2906 11.5267 54.2464C11.6381 54.2028 11.8177 54.1805 12.0649 54.1805H12.4756C12.7283 54.1805 12.9295 54.2295 13.0786 54.3277C13.2272 54.4258 13.302 54.6155 13.302 54.8962V59.9909C13.302 60.2368 13.246 60.4216 13.1346 60.5442C13.0232 60.6669 12.8735 60.7285 12.6857 60.7285C12.51 60.7285 12.3653 60.6669 12.2522 60.5442C12.1392 60.4216 12.0826 60.2368 12.0826 59.9909V55.5466L11.0334 59.6486C10.9647 59.9152 10.9093 60.1103 10.8661 60.2346C10.8228 60.3589 10.7436 60.4723 10.6272 60.5748C10.5113 60.6772 10.3506 60.7285 10.145 60.7285C9.99034 60.7285 9.85898 60.6958 9.75201 60.6298C9.64504 60.5639 9.56135 60.4799 9.50205 60.3774C9.44274 60.275 9.39563 60.1616 9.36127 60.0373C9.32746 59.9124 9.29254 59.7832 9.25652 59.6486Z" fill="#131718"/>
<path d="M18.978 55.1862H15.9906V56.7671H18.7414C18.9437 56.7671 19.095 56.8118 19.1947 56.9012C19.2945 56.9906 19.3444 57.1083 19.3444 57.255C19.3444 57.4016 19.2951 57.5205 19.197 57.6131C19.0989 57.7053 18.947 57.7516 18.7414 57.7516H15.9906V59.5832H19.0806C19.289 59.5832 19.4458 59.6306 19.5517 59.726C19.6575 59.8214 19.7102 59.9479 19.7102 60.106C19.7102 60.2581 19.6575 60.3818 19.5517 60.4772C19.4458 60.5726 19.289 60.62 19.0806 60.62H15.4768C15.1881 60.62 14.9802 60.5573 14.8539 60.4314C14.7275 60.3055 14.6643 60.1022 14.6643 59.8209V54.9813C14.6643 54.7938 14.6926 54.6411 14.7491 54.5223C14.8056 54.4034 14.8943 54.3173 15.0146 54.2634C15.1354 54.2094 15.2895 54.1821 15.4768 54.1821H18.9775C19.1886 54.1821 19.346 54.2285 19.4486 54.3206C19.5511 54.4127 19.6027 54.5337 19.6027 54.6831C19.6027 54.8352 19.5511 54.9578 19.4486 55.05C19.346 55.1399 19.1892 55.1862 18.978 55.1862Z" fill="#131718"/>
<path d="M22.5457 57.8655H22.0813V59.9342C22.0813 60.2068 22.0203 60.4069 21.8984 60.5361C21.7764 60.6647 21.6174 60.729 21.4206 60.729C21.2094 60.729 21.0454 60.6614 20.9295 60.5268C20.8137 60.3922 20.7555 60.1943 20.7555 59.9337V54.9796C20.7555 54.6983 20.8192 54.495 20.9473 54.3691C21.0753 54.2432 21.282 54.1805 21.568 54.1805H23.7246C24.0222 54.1805 24.2766 54.193 24.4884 54.2175C24.6995 54.2426 24.8902 54.2928 25.0598 54.3691C25.2654 54.4541 25.4467 54.5757 25.6046 54.7338C25.7626 54.8919 25.8823 55.0756 25.9638 55.2849C26.0458 55.4942 26.0868 55.7161 26.0868 55.9505C26.0868 56.4307 25.9488 56.8145 25.6739 57.1012C25.3984 57.388 24.9811 57.5919 24.4213 57.7118C24.6563 57.835 24.8813 58.0165 25.0953 58.2564C25.3098 58.4962 25.501 58.7519 25.6689 59.0228C25.8368 59.2937 25.9682 59.5379 26.0619 59.7565C26.1555 59.9746 26.2027 60.1245 26.2027 60.2068C26.2027 60.2918 26.1749 60.3758 26.1201 60.4592C26.0652 60.5426 25.9898 60.6086 25.8945 60.6565C25.7992 60.7051 25.6889 60.729 25.5642 60.729C25.4151 60.729 25.2904 60.6947 25.1889 60.626C25.0875 60.5573 25.0005 60.4701 24.9279 60.3649C24.8553 60.2597 24.7561 60.1043 24.6308 59.8994L24.0993 59.0299C23.9086 58.711 23.7385 58.4679 23.5877 58.3011C23.4369 58.1343 23.2851 58.0198 23.1299 57.9587C22.9747 57.8977 22.7807 57.8655 22.5457 57.8655ZM23.3045 55.1601H22.0813V56.9301H23.269C23.5877 56.9301 23.8554 56.9028 24.0727 56.8489C24.2899 56.7949 24.4557 56.7022 24.5704 56.5719C24.6851 56.4417 24.7422 56.2623 24.7422 56.0339C24.7422 55.8551 24.6962 55.6981 24.6036 55.5618C24.5111 55.4255 24.3831 55.3241 24.2195 55.2566C24.0655 55.1922 23.7601 55.1601 23.3045 55.1601Z" fill="#131718"/>
<path d="M27.3948 59.9337V54.8613C27.3948 54.598 27.4558 54.4002 27.5777 54.2682C27.6997 54.1363 27.8576 54.0704 28.0511 54.0704C28.2506 54.0704 28.4119 54.1358 28.5355 54.2661C28.6591 54.3964 28.7206 54.5948 28.7206 54.8613V59.9337C28.7206 60.2003 28.6585 60.3992 28.5355 60.5312C28.4119 60.6631 28.2506 60.7285 28.0511 60.7285C27.8604 60.7285 27.7036 60.662 27.58 60.5284C27.4564 60.3949 27.3948 60.1975 27.3948 59.9337Z" fill="#131718"/>
<path d="M35.7812 58.5856C35.7812 58.7906 35.7296 59.0124 35.6271 59.2512C35.5246 59.49 35.3627 59.7238 35.1427 59.9539C34.9227 60.1839 34.6411 60.3704 34.2986 60.5137C33.956 60.6571 33.5575 60.729 33.102 60.729C32.7567 60.729 32.4424 60.6969 32.1597 60.6326C31.8771 60.5682 31.6199 60.4679 31.3893 60.3316C31.1588 60.1954 30.9465 60.016 30.753 59.7936C30.5801 59.5914 30.4327 59.3651 30.3108 59.1149C30.1888 58.8647 30.0968 58.5976 30.0358 58.3136C29.9749 58.0296 29.9444 57.7281 29.9444 57.4087C29.9444 56.8903 30.0209 56.4264 30.1744 56.0165C30.3279 55.6065 30.5474 55.256 30.8329 54.9644C31.1188 54.6733 31.4536 54.4514 31.8377 54.2988C32.2218 54.1467 32.6308 54.0704 33.0659 54.0704C33.5958 54.0704 34.0675 54.1745 34.4815 54.3822C34.8949 54.5899 35.2125 54.8472 35.4326 55.153C35.6526 55.4588 35.7629 55.7483 35.7629 56.0203C35.7629 56.1696 35.7091 56.3016 35.6022 56.4155C35.4952 56.5294 35.3655 56.5867 35.2136 56.5867C35.044 56.5867 34.9166 56.5469 34.8318 56.4684C34.747 56.3893 34.6522 56.253 34.548 56.0601C34.3751 55.7412 34.1722 55.5024 33.9383 55.3443C33.7044 55.1862 33.4168 55.1072 33.0742 55.1072C32.5294 55.1072 32.0954 55.3105 31.7723 55.7177C31.4492 56.1249 31.2879 56.7028 31.2879 57.4523C31.2879 57.9527 31.3594 58.3698 31.5024 58.7017C31.6454 59.0343 31.8477 59.2823 32.1098 59.4464C32.3715 59.6105 32.6785 59.6922 33.0299 59.6922C33.4112 59.6922 33.7332 59.5996 33.9965 59.4131C34.2598 59.2272 34.4588 58.9541 34.5929 58.5938C34.6494 58.4237 34.7192 58.2858 34.8029 58.179C34.8861 58.0721 35.0202 58.0187 35.2048 58.0187C35.3627 58.0187 35.498 58.0727 35.611 58.1811C35.7247 58.2896 35.7812 58.4248 35.7812 58.5856Z" fill="#131718"/>
<path d="M41.1619 59.8901L40.8493 59.0822H38.1878L37.8752 59.9081C37.7532 60.2303 37.649 60.4478 37.5626 60.5601C37.4761 60.6729 37.3348 60.7291 37.1386 60.7291C36.9717 60.7291 36.8243 60.6691 36.6963 60.5492C36.5683 60.4292 36.5045 60.293 36.5045 60.1409C36.5045 60.0531 36.5195 59.9621 36.5489 59.8683C36.5788 59.7745 36.6276 59.6443 36.6963 59.4774L38.3707 55.2964C38.4183 55.1764 38.4754 55.032 38.5425 54.8635C38.6096 54.6951 38.6811 54.5555 38.757 54.4443C38.8329 54.3331 38.9327 54.2432 39.0563 54.174C39.1799 54.1053 39.3323 54.0709 39.5141 54.0709C39.6987 54.0709 39.8527 54.1053 39.9763 54.174C40.0999 54.2426 40.1997 54.3315 40.2756 54.4394C40.3516 54.5479 40.4153 54.664 40.4674 54.7889C40.5195 54.9131 40.5854 55.0794 40.6664 55.2871L42.3768 59.442C42.5109 59.7582 42.578 59.9882 42.578 60.1316C42.578 60.281 42.5148 60.4178 42.3879 60.5421C42.2609 60.6664 42.1085 60.7285 41.9301 60.7285C41.8259 60.7285 41.7366 60.71 41.6624 60.6734C41.5881 60.6369 41.5255 60.5873 41.475 60.5241C41.4246 60.4614 41.3703 60.3644 41.3121 60.2341C41.2533 60.1043 41.2034 59.9893 41.1619 59.8901ZM38.5364 58.1027H40.4923L39.5058 55.4457L38.5364 58.1027Z" fill="#131718"/>
<path d="M45.2788 54.8526L47.8284 58.6472V54.8177C47.8284 54.5686 47.8827 54.3822 47.9913 54.2579C48.1 54.1336 48.2468 54.0715 48.4314 54.0715C48.6221 54.0715 48.7723 54.1336 48.8826 54.2579C48.9929 54.3822 49.0477 54.5692 49.0477 54.8177V59.8814C49.0477 60.4467 48.8094 60.7291 48.3333 60.7291C48.2141 60.7291 48.1072 60.7122 48.0118 60.6784C47.9165 60.6446 47.8273 60.5911 47.7441 60.5181C47.6604 60.445 47.5834 60.3595 47.5119 60.2613C47.4404 60.1632 47.3689 60.0629 47.2974 59.9604L44.8099 56.21V59.9828C44.8099 60.2286 44.7517 60.4145 44.6359 60.5404C44.5195 60.6664 44.371 60.7291 44.1892 60.7291C44.0018 60.7291 43.8511 60.6653 43.738 60.5383C43.625 60.4107 43.5684 60.2259 43.5684 59.9828V55.0156C43.5684 54.8047 43.5923 54.6395 43.6399 54.5196C43.6965 54.3876 43.7901 54.2803 43.9215 54.1968C44.0523 54.1134 44.1936 54.0715 44.3455 54.0715C44.4646 54.0715 44.5666 54.0906 44.6514 54.1287C44.7362 54.1669 44.8105 54.2181 44.8748 54.2824C44.9385 54.3468 45.0045 54.4302 45.071 54.5326C45.1381 54.6346 45.2073 54.7414 45.2788 54.8526Z" fill="#131718"/>
<path d="M54.9958 59.6486L53.9466 55.5466V59.9909C53.9466 60.2368 53.8907 60.4216 53.7793 60.5442C53.6679 60.6669 53.5193 60.7285 53.3347 60.7285C53.1563 60.7285 53.01 60.6674 52.8969 60.5464C52.7838 60.4249 52.7273 60.2395 52.7273 59.9909V54.8962C52.7273 54.6149 52.8016 54.4258 52.9507 54.3277C53.0997 54.2295 53.3004 54.1805 53.5537 54.1805H53.9644C54.2116 54.1805 54.3906 54.2023 54.5026 54.2464C54.6145 54.2906 54.6971 54.3696 54.7503 54.4836C54.8041 54.5975 54.865 54.7839 54.9332 55.0412L55.8843 58.5676L56.8354 55.0412C56.9036 54.7834 56.9651 54.5975 57.0183 54.4836C57.0721 54.3691 57.1546 54.2906 57.266 54.2464C57.3774 54.2028 57.557 54.1805 57.8042 54.1805H58.2149C58.4676 54.1805 58.6688 54.2295 58.8179 54.3277C58.9665 54.4258 59.0413 54.6155 59.0413 54.8962V59.9909C59.0413 60.2368 58.9853 60.4216 58.8739 60.5442C58.7625 60.6669 58.6129 60.7285 58.425 60.7285C58.2493 60.7285 58.1046 60.6669 57.9916 60.5442C57.8785 60.4216 57.8219 60.2368 57.8219 59.9909V55.5466L56.7728 59.6486C56.704 59.9152 56.6486 60.1103 56.6054 60.2346C56.5621 60.3589 56.4829 60.4723 56.3665 60.5748C56.2507 60.6772 56.0899 60.7285 55.8843 60.7285C55.7297 60.7285 55.5983 60.6958 55.4913 60.6298C55.3844 60.5639 55.3007 60.4799 55.2414 60.3774C55.1821 60.275 55.135 60.1616 55.1006 60.0373C55.0662 59.9124 55.0313 59.7832 54.9958 59.6486Z" fill="#131718"/>
<path d="M63.2835 54.0709C63.9625 54.0709 64.545 54.2067 65.0316 54.477C65.5183 54.748 65.8868 55.1328 66.1368 55.6322C66.3868 56.1315 66.512 56.7175 66.512 57.3913C66.512 57.889 66.4433 58.3414 66.3064 58.7486C66.1695 59.1558 65.9639 59.5085 65.6901 59.8072C65.4163 60.106 65.0798 60.3344 64.6808 60.4925C64.2817 60.6506 63.825 60.7296 63.3101 60.7296C62.798 60.7296 62.3396 60.6484 61.935 60.4859C61.5304 60.3235 61.1923 60.0945 60.9213 59.7985C60.6503 59.5031 60.4458 59.1471 60.3072 58.7312C60.1686 58.3152 60.0994 57.8661 60.0994 57.3831C60.0994 56.8881 60.1714 56.4346 60.3161 56.0214C60.4602 55.6087 60.6697 55.2571 60.9435 54.9671C61.2173 54.6771 61.5509 54.4552 61.9439 54.3015C62.3369 54.1478 62.783 54.0709 63.2835 54.0709ZM65.168 57.382C65.168 56.9105 65.0904 56.5022 64.9357 56.1566C64.7811 55.811 64.56 55.5498 64.2729 55.3727C63.9858 55.1955 63.656 55.1067 63.2835 55.1067C63.0186 55.1067 62.7736 55.1557 62.5491 55.2538C62.3241 55.352 62.1307 55.4948 61.9688 55.6823C61.8065 55.8698 61.6784 56.1091 61.5848 56.4002C61.4911 56.6913 61.444 57.0189 61.444 57.382C61.444 57.7478 61.4911 58.0787 61.5848 58.3747C61.6784 58.6707 61.8109 58.9154 61.9822 59.1106C62.1534 59.3052 62.3496 59.4507 62.5713 59.5478C62.793 59.6443 63.0363 59.6928 63.3013 59.6928C63.6405 59.6928 63.9525 59.6094 64.2368 59.4426C64.5212 59.2758 64.7473 59.0179 64.9158 58.6696C65.0837 58.3207 65.168 57.8917 65.168 57.382Z" fill="#131718"/>
<path d="M71.5486 55.2566H70.102V59.9337C70.102 60.203 70.041 60.4031 69.9191 60.5333C69.7972 60.6636 69.6392 60.7285 69.4458 60.7285C69.2496 60.7285 69.0894 60.6625 68.9658 60.5312C68.8422 60.3998 68.7807 60.2003 68.7807 59.9337V55.2566H67.3341C67.1079 55.2566 66.9395 55.2075 66.8297 55.1094C66.7194 55.0112 66.6646 54.8815 66.6646 54.7207C66.6646 54.5539 66.7216 54.422 66.8364 54.3255C66.9511 54.229 67.1168 54.1805 67.3341 54.1805H71.5491C71.7786 54.1805 71.9488 54.2301 72.0602 54.3298C72.1721 54.4296 72.2275 54.5599 72.2275 54.7207C72.2275 54.8821 72.171 55.0112 72.0579 55.1094C71.9449 55.2075 71.7753 55.2566 71.5486 55.2566Z" fill="#131718"/>
<path d="M75.773 54.0709C76.452 54.0709 77.0345 54.2067 77.5211 54.477C78.0078 54.748 78.3763 55.1328 78.6263 55.6322C78.8763 56.1315 79.0015 56.7175 79.0015 57.3913C79.0015 57.889 78.9328 58.3414 78.7959 58.7486C78.659 59.1558 78.4534 59.5085 78.1796 59.8072C77.9058 60.106 77.5693 60.3344 77.1703 60.4925C76.7712 60.6506 76.3145 60.7296 75.7996 60.7296C75.2875 60.7296 74.8291 60.6484 74.4245 60.4859C74.0194 60.3235 73.6818 60.0945 73.4108 59.7985C73.1398 59.5031 72.9353 59.1471 72.7967 58.7312C72.6581 58.3152 72.5889 57.8661 72.5889 57.3831C72.5889 56.8881 72.6609 56.4346 72.8056 56.0214C72.9502 55.6087 73.1592 55.2571 73.433 54.9671C73.7068 54.6771 74.0404 54.4552 74.4334 54.3015C74.8264 54.1478 75.2731 54.0709 75.773 54.0709ZM77.6575 57.382C77.6575 56.9105 77.5799 56.5022 77.4252 56.1566C77.2706 55.811 77.0495 55.5498 76.7624 55.3727C76.4753 55.1955 76.1455 55.1067 75.773 55.1067C75.5081 55.1067 75.2631 55.1557 75.0386 55.2538C74.8142 55.352 74.6202 55.4948 74.4583 55.6823C74.296 55.8698 74.1679 56.1091 74.0742 56.4002C73.9806 56.6913 73.9335 57.0189 73.9335 57.382C73.9335 57.7478 73.9806 58.0787 74.0742 58.3747C74.1679 58.6707 74.3004 58.9154 74.4716 59.1106C74.6429 59.3052 74.8391 59.4507 75.0608 59.5478C75.2825 59.6443 75.5258 59.6928 75.7908 59.6928C76.13 59.6928 76.442 59.6094 76.7263 59.4426C77.0107 59.2758 77.2368 59.0179 77.4053 58.6696C77.5732 58.3207 77.6575 57.8917 77.6575 57.382Z" fill="#131718"/>
<path d="M81.9174 57.8655H81.453V59.9342C81.453 60.2068 81.392 60.4069 81.2701 60.5361C81.1481 60.6647 80.9891 60.729 80.7923 60.729C80.5811 60.729 80.4171 60.6614 80.3012 60.5268C80.1854 60.3922 80.1272 60.1943 80.1272 59.9337V54.9796C80.1272 54.6983 80.1909 54.495 80.319 54.3691C80.447 54.2432 80.6537 54.1805 80.9397 54.1805H83.0963C83.3939 54.1805 83.6483 54.193 83.8601 54.2175C84.0712 54.2426 84.2619 54.2928 84.4315 54.3691C84.6371 54.4541 84.8184 54.5757 84.9763 54.7338C85.1343 54.8919 85.254 55.0756 85.3355 55.2849C85.4175 55.4942 85.4585 55.7161 85.4585 55.9505C85.4585 56.4307 85.3205 56.8145 85.0456 57.1012C84.7701 57.388 84.3528 57.5919 83.793 57.7118C84.028 57.835 84.253 58.0165 84.467 58.2564C84.6815 58.4962 84.8727 58.7519 85.0406 59.0228C85.2086 59.2937 85.3399 59.5379 85.4336 59.7565C85.5272 59.9746 85.5744 60.1245 85.5744 60.2068C85.5744 60.2918 85.5466 60.3758 85.4918 60.4592C85.4369 60.5426 85.3615 60.6086 85.2662 60.6565C85.1709 60.7051 85.0606 60.729 84.9359 60.729C84.7868 60.729 84.6621 60.6947 84.5606 60.626C84.4592 60.5573 84.3722 60.4701 84.2996 60.3649C84.227 60.2597 84.1278 60.1043 84.0025 59.8994L83.471 59.0299C83.2803 58.711 83.1102 58.4679 82.9594 58.3011C82.8087 58.1343 82.6568 58.0198 82.5016 57.9587C82.3464 57.8977 82.1524 57.8655 81.9174 57.8655ZM82.6767 55.1601H81.4535V56.9301H82.6413C82.96 56.9301 83.2277 56.9028 83.4449 56.8489C83.6622 56.7949 83.8279 56.7022 83.9427 56.5719C84.0574 56.4417 84.1145 56.2623 84.1145 56.0339C84.1145 55.8551 84.0685 55.6981 83.9759 55.5618C83.8833 55.4255 83.7553 55.3241 83.5918 55.2566C83.4372 55.1922 83.1318 55.1601 82.6767 55.1601Z" fill="#131718"/>
<path d="M92.1699 58.5856C92.1699 58.7906 92.1184 59.0124 92.0158 59.2512C91.9133 59.49 91.7515 59.7238 91.5314 59.9539C91.3114 60.1839 91.0298 60.3704 90.6873 60.5137C90.3448 60.6571 89.9463 60.729 89.4907 60.729C89.1454 60.729 88.8311 60.6969 88.5485 60.6326C88.2658 60.5682 88.0086 60.4679 87.7781 60.3316C87.5475 60.1954 87.3352 60.016 87.1418 59.7936C86.9689 59.5914 86.8214 59.3651 86.6995 59.1149C86.5776 58.8647 86.4855 58.5976 86.4246 58.3136C86.3636 58.0296 86.3331 57.7281 86.3331 57.4087C86.3331 56.8903 86.4096 56.4264 86.5631 56.0165C86.7167 55.6065 86.9361 55.256 87.2216 54.9644C87.5076 54.6733 87.8423 54.4514 88.2264 54.2988C88.6105 54.1467 89.0196 54.0704 89.4547 54.0704C89.9845 54.0704 90.4562 54.1745 90.8702 54.3822C91.2837 54.5899 91.6013 54.8472 91.8213 55.153C92.0413 55.4588 92.1516 55.7483 92.1516 56.0203C92.1516 56.1696 92.0979 56.3016 91.9909 56.4155C91.8839 56.5294 91.7542 56.5867 91.6024 56.5867C91.4328 56.5867 91.3053 56.5469 91.2205 56.4684C91.1357 56.3893 91.0409 56.253 90.9367 56.0601C90.7638 55.7412 90.5609 55.5024 90.327 55.3443C90.0932 55.1862 89.8055 55.1072 89.463 55.1072C88.9181 55.1072 88.4842 55.3105 88.161 55.7177C87.8379 56.1249 87.6766 56.7028 87.6766 57.4523C87.6766 57.9527 87.7481 58.3698 87.8911 58.7017C88.0341 59.0343 88.2364 59.2823 88.4986 59.4464C88.7602 59.6105 89.0672 59.6922 89.4186 59.6922C89.8 59.6922 90.122 59.5996 90.3852 59.4131C90.6485 59.2272 90.8475 58.9541 90.9816 58.5938C91.0381 58.4237 91.108 58.2858 91.1917 58.179C91.2748 58.0721 91.4089 58.0187 91.5935 58.0187C91.7515 58.0187 91.8867 58.0727 91.9998 58.1811C92.1134 58.2896 92.1699 58.4248 92.1699 58.5856Z" fill="#131718"/>
<path d="M94.8225 59.9337V57.8917L93.2241 55.4544C93.0838 55.2348 92.9852 55.0636 92.927 54.9404C92.8688 54.8172 92.84 54.7104 92.84 54.6199C92.84 54.4705 92.8987 54.3419 93.0162 54.2334C93.1337 54.1249 93.2789 54.0709 93.4519 54.0709C93.6336 54.0709 93.7711 54.1216 93.8648 54.2225C93.9584 54.3233 94.0992 54.525 94.2871 54.8265L95.5103 56.7807L96.7474 54.8265C96.8217 54.7065 96.8843 54.6057 96.9347 54.5234C96.9852 54.4416 97.0412 54.3647 97.1021 54.2928C97.1631 54.2208 97.2307 54.1663 97.3055 54.1282C97.3798 54.09 97.4707 54.0709 97.5777 54.0709C97.7445 54.0709 97.8836 54.1243 97.995 54.2312C98.1064 54.338 98.1624 54.4618 98.1624 54.6024C98.1624 54.7163 98.1342 54.8308 98.0776 54.9448C98.0211 55.0587 97.9241 55.2173 97.7872 55.419L96.1483 57.8917V59.9337C96.1483 60.2003 96.0856 60.3993 95.9609 60.5312C95.8362 60.6631 95.6766 60.7285 95.4832 60.7285C95.287 60.7285 95.1273 60.6631 95.0054 60.5333C94.8835 60.4031 94.8225 60.203 94.8225 59.9337Z" fill="#131718"/>
<path d="M104.427 58.5856C104.427 58.7906 104.376 59.0124 104.273 59.2512C104.171 59.49 104.009 59.7238 103.789 59.9539C103.569 60.1839 103.287 60.3704 102.945 60.5137C102.602 60.6571 102.203 60.729 101.748 60.729C101.403 60.729 101.088 60.6969 100.806 60.6326C100.523 60.5682 100.266 60.4679 100.035 60.3316C99.8047 60.1954 99.5924 60.016 99.399 59.7936C99.2261 59.5914 99.0786 59.3651 98.9567 59.1149C98.8348 58.8647 98.7427 58.5976 98.6818 58.3136C98.6208 58.0296 98.5903 57.7281 98.5903 57.4087C98.5903 56.8903 98.6668 56.4264 98.8203 56.0165C98.9739 55.6065 99.1933 55.256 99.4788 54.9644C99.7648 54.6733 100.1 54.4514 100.484 54.2988C100.868 54.1467 101.277 54.0704 101.712 54.0704C102.242 54.0704 102.713 54.1745 103.127 54.3822C103.541 54.5899 103.858 54.8472 104.078 55.153C104.299 55.4588 104.409 55.7483 104.409 56.0203C104.409 56.1696 104.355 56.3016 104.248 56.4155C104.141 56.5294 104.011 56.5867 103.86 56.5867C103.69 56.5867 103.562 56.5469 103.478 56.4684C103.393 56.3893 103.298 56.253 103.194 56.0601C103.021 55.7412 102.818 55.5024 102.584 55.3443C102.35 55.1862 102.063 55.1072 101.72 55.1072C101.175 55.1072 100.741 55.3105 100.418 55.7177C100.095 56.1249 99.9338 56.7028 99.9338 57.4523C99.9338 57.9527 100.005 58.3698 100.148 58.7017C100.291 59.0343 100.494 59.2823 100.756 59.4464C101.017 59.6105 101.324 59.6922 101.676 59.6922C102.057 59.6922 102.379 59.5996 102.642 59.4131C102.906 59.2272 103.105 58.9541 103.239 58.5938C103.295 58.4237 103.365 58.2858 103.449 58.179C103.532 58.0721 103.666 58.0187 103.851 58.0187C104.009 58.0187 104.144 58.0727 104.257 58.1811C104.371 58.2896 104.427 58.4248 104.427 58.5856Z" fill="#131718"/>
<path d="M106.919 54.8613V59.5472H109.607C109.822 59.5472 109.986 59.5985 110.1 59.7009C110.215 59.8034 110.272 59.9321 110.272 60.0874C110.272 60.2455 110.216 60.3736 110.103 60.4717C109.99 60.5699 109.824 60.6189 109.607 60.6189H106.405C106.117 60.6189 105.909 60.5562 105.782 60.4303C105.656 60.3044 105.593 60.1011 105.593 59.8198V54.8613C105.593 54.598 105.653 54.4002 105.773 54.2682C105.894 54.1363 106.053 54.0704 106.249 54.0704C106.449 54.0704 106.61 54.1358 106.733 54.2661C106.857 54.3964 106.919 54.5948 106.919 54.8613Z" fill="#131718"/>
<path d="M115.457 55.1862H112.469V56.7671H115.22C115.422 56.7671 115.574 56.8118 115.673 56.9012C115.773 56.9906 115.823 57.1083 115.823 57.255C115.823 57.4016 115.774 57.5205 115.676 57.6131C115.577 57.7053 115.426 57.7516 115.22 57.7516H112.469V59.5832H115.559C115.768 59.5832 115.924 59.6306 116.03 59.726C116.136 59.8214 116.189 59.9479 116.189 60.106C116.189 60.2581 116.136 60.3818 116.03 60.4772C115.924 60.5726 115.768 60.62 115.559 60.62H111.955C111.667 60.62 111.459 60.5573 111.332 60.4314C111.206 60.3055 111.143 60.1022 111.143 59.8209V54.9813C111.143 54.7938 111.171 54.6411 111.228 54.5223C111.284 54.4034 111.373 54.3173 111.493 54.2634C111.614 54.2094 111.768 54.1821 111.955 54.1821H115.456C115.667 54.1821 115.825 54.2285 115.927 54.3206C116.03 54.4127 116.081 54.5337 116.081 54.6831C116.081 54.8352 116.03 54.9578 115.927 55.05C115.825 55.1399 115.668 55.1862 115.457 55.1862Z" fill="#131718"/>
<path d="M123.78 55.2566H122.334V59.9337C122.334 60.203 122.273 60.4031 122.151 60.5333C122.029 60.6636 121.871 60.7285 121.678 60.7285C121.481 60.7285 121.321 60.6625 121.198 60.5312C121.074 60.3992 121.012 60.2003 121.012 59.9337V55.2566H119.566C119.34 55.2566 119.171 55.2075 119.062 55.1094C118.951 55.0112 118.896 54.8815 118.896 54.7207C118.896 54.5539 118.953 54.422 119.068 54.3255C119.183 54.229 119.349 54.1805 119.566 54.1805H123.781C124.01 54.1805 124.181 54.2301 124.292 54.3298C124.403 54.4296 124.459 54.5599 124.459 54.7207C124.459 54.8821 124.403 55.0112 124.29 55.1094C124.176 55.2075 124.007 55.2566 123.78 55.2566Z" fill="#131718"/>
<path d="M127.027 57.8655H126.562V59.9342C126.562 60.2068 126.501 60.4069 126.379 60.5361C126.257 60.6647 126.098 60.729 125.902 60.729C125.69 60.729 125.526 60.6614 125.41 60.5268C125.295 60.3922 125.236 60.1943 125.236 59.9337V54.9796C125.236 54.6983 125.3 54.495 125.428 54.3691C125.556 54.2432 125.763 54.1805 126.049 54.1805H128.206C128.503 54.1805 128.758 54.193 128.969 54.2175C129.18 54.2426 129.371 54.2928 129.541 54.3691C129.746 54.4541 129.928 54.5757 130.086 54.7338C130.244 54.8919 130.363 55.0756 130.445 55.2849C130.527 55.4942 130.568 55.7161 130.568 55.9505C130.568 56.4307 130.43 56.8145 130.155 57.1012C129.879 57.388 129.462 57.5919 128.902 57.7118C129.137 57.835 129.362 58.0165 129.576 58.2564C129.791 58.4962 129.982 58.7519 130.15 59.0228C130.318 59.2937 130.449 59.5379 130.543 59.7565C130.636 59.9746 130.684 60.1245 130.684 60.2068C130.684 60.2918 130.656 60.3758 130.601 60.4592C130.546 60.5426 130.471 60.6086 130.375 60.6565C130.28 60.7051 130.17 60.729 130.045 60.729C129.896 60.729 129.771 60.6947 129.67 60.626C129.568 60.5573 129.481 60.4701 129.409 60.3649C129.336 60.2597 129.237 60.1043 129.112 59.8994L128.58 59.0299C128.39 58.711 128.219 58.4679 128.069 58.3011C127.918 58.1343 127.766 58.0198 127.611 57.9587C127.456 57.8977 127.262 57.8655 127.027 57.8655ZM127.786 55.1601H126.563V56.9301H127.751C128.069 56.9301 128.337 56.9028 128.554 56.8489C128.771 56.7949 128.937 56.7022 129.052 56.5719C129.167 56.4417 129.224 56.2623 129.224 56.0339C129.224 55.8551 129.178 55.6981 129.085 55.5618C128.993 55.4255 128.865 55.3241 128.701 55.2566C128.546 55.1922 128.242 55.1601 127.786 55.1601Z" fill="#131718"/>
<path d="M136.011 59.8901L135.698 59.0822H133.037L132.724 59.9081C132.602 60.2303 132.498 60.4478 132.412 60.5601C132.325 60.6729 132.184 60.7291 131.988 60.7291C131.821 60.7291 131.673 60.6691 131.545 60.5492C131.417 60.4292 131.354 60.293 131.354 60.1409C131.354 60.0531 131.369 59.9621 131.398 59.8683C131.428 59.7745 131.477 59.6443 131.545 59.4774L133.22 55.2964C133.267 55.1764 133.325 55.032 133.392 54.8635C133.459 54.6951 133.53 54.5555 133.606 54.4443C133.682 54.3331 133.782 54.2432 133.905 54.174C134.029 54.1053 134.181 54.0709 134.363 54.0709C134.548 54.0709 134.702 54.1053 134.825 54.174C134.949 54.2426 135.049 54.3315 135.125 54.4394C135.201 54.5479 135.264 54.664 135.317 54.7889C135.369 54.9131 135.435 55.0794 135.515 55.2871L137.226 59.442C137.36 59.7582 137.427 59.9882 137.427 60.1316C137.427 60.281 137.364 60.4178 137.237 60.5421C137.11 60.6664 136.958 60.7285 136.779 60.7285C136.675 60.7285 136.586 60.71 136.511 60.6734C136.437 60.6369 136.375 60.5873 136.324 60.5241C136.274 60.4614 136.219 60.3644 136.161 60.2341C136.102 60.1043 136.053 59.9893 136.011 59.8901ZM133.386 58.1027H135.341L134.355 55.4457L133.386 58.1027Z" fill="#131718"/>
<path d="M138.454 59.9337V54.8613C138.454 54.598 138.515 54.4002 138.637 54.2682C138.758 54.1363 138.916 54.0704 139.11 54.0704C139.309 54.0704 139.471 54.1358 139.594 54.2661C139.718 54.3964 139.779 54.5948 139.779 54.8613V59.9337C139.779 60.2003 139.717 60.3992 139.594 60.5312C139.471 60.6631 139.309 60.7285 139.11 60.7285C138.919 60.7285 138.762 60.662 138.639 60.5284C138.515 60.396 138.454 60.1975 138.454 59.9337Z" fill="#131718"/>
<path d="M142.991 54.8526L145.54 58.6472V54.8177C145.54 54.5686 145.595 54.3822 145.703 54.2579C145.812 54.1336 145.959 54.0715 146.143 54.0715C146.334 54.0715 146.484 54.1336 146.594 54.2579C146.705 54.3822 146.76 54.5692 146.76 54.8177V59.8814C146.76 60.4467 146.521 60.7291 146.045 60.7291C145.926 60.7291 145.819 60.7122 145.724 60.6784C145.628 60.6446 145.539 60.5911 145.456 60.5181C145.373 60.445 145.295 60.3595 145.224 60.2613C145.152 60.1632 145.081 60.0629 145.009 59.9604L142.522 56.21V59.9828C142.522 60.2286 142.464 60.4145 142.348 60.5404C142.231 60.6664 142.083 60.7291 141.901 60.7291C141.714 60.7291 141.563 60.6653 141.45 60.5383C141.337 60.4107 141.28 60.2259 141.28 59.9828V55.0156C141.28 54.8047 141.304 54.6395 141.352 54.5196C141.408 54.3876 141.502 54.2803 141.633 54.1968C141.764 54.1134 141.905 54.0715 142.057 54.0715C142.176 54.0715 142.278 54.0906 142.363 54.1287C142.448 54.1669 142.522 54.2181 142.587 54.2824C142.65 54.3468 142.716 54.4302 142.783 54.5326C142.85 54.6346 142.919 54.7414 142.991 54.8526Z" fill="#131718"/>
<path d="M148.264 59.9337V54.8613C148.264 54.598 148.325 54.4002 148.447 54.2682C148.569 54.1363 148.727 54.0704 148.92 54.0704C149.12 54.0704 149.281 54.1358 149.404 54.2661C149.528 54.3964 149.59 54.5948 149.59 54.8613V59.9337C149.59 60.2003 149.527 60.3992 149.404 60.5312C149.281 60.6631 149.12 60.7285 148.92 60.7285C148.729 60.7285 148.573 60.662 148.449 60.5284C148.325 60.3949 148.264 60.1975 148.264 59.9337Z" fill="#131718"/>
<path d="M152.801 54.8526L155.35 58.6472V54.8177C155.35 54.5686 155.405 54.3822 155.513 54.2579C155.622 54.1336 155.769 54.0715 155.953 54.0715C156.144 54.0715 156.294 54.1336 156.405 54.2579C156.515 54.3822 156.57 54.5692 156.57 54.8177V59.8814C156.57 60.4467 156.331 60.7291 155.855 60.7291C155.736 60.7291 155.629 60.7122 155.534 60.6784C155.439 60.6446 155.349 60.5911 155.266 60.5181C155.182 60.445 155.105 60.3595 155.034 60.2613C154.962 60.1632 154.891 60.0629 154.819 59.9604L152.332 56.21V59.9828C152.332 60.2286 152.274 60.4145 152.158 60.5404C152.042 60.6664 151.893 60.7291 151.711 60.7291C151.524 60.7291 151.373 60.6653 151.26 60.5383C151.147 60.4107 151.09 60.2259 151.09 59.9828V55.0156C151.09 54.8047 151.114 54.6395 151.162 54.5196C151.218 54.3876 151.312 54.2803 151.444 54.1968C151.574 54.1134 151.716 54.0715 151.868 54.0715C151.987 54.0715 152.089 54.0906 152.173 54.1287C152.258 54.1669 152.333 54.2181 152.397 54.2824C152.461 54.3468 152.527 54.4302 152.593 54.5326C152.66 54.6346 152.729 54.7414 152.801 54.8526Z" fill="#131718"/>
<path d="M164 58.0012V59.2354C164 59.3995 163.983 59.5303 163.951 59.6284C163.918 59.7266 163.858 59.8149 163.77 59.8945C163.682 59.9735 163.57 60.0498 163.433 60.1229C163.037 60.3338 162.656 60.4876 162.29 60.584C161.924 60.6805 161.525 60.729 161.094 60.729C160.59 60.729 160.132 60.6527 159.718 60.5006C159.304 60.3485 158.952 60.1272 158.66 59.8372C158.368 59.5472 158.144 59.1962 157.988 58.783C157.832 58.3703 157.754 57.9091 157.754 57.3994C157.754 56.8985 157.83 56.4406 157.981 56.0246C158.133 55.6087 158.357 55.256 158.651 54.966C158.946 54.676 159.304 54.4541 159.727 54.3004C160.15 54.1467 160.63 54.0698 161.165 54.0698C161.606 54.0698 161.995 54.1276 162.335 54.2432C162.674 54.3587 162.95 54.5043 163.161 54.6804C163.373 54.8559 163.532 55.0418 163.639 55.238C163.746 55.4343 163.8 55.6082 163.8 55.7608C163.8 55.9249 163.738 56.0644 163.615 56.18C163.491 56.2956 163.343 56.3533 163.17 56.3533C163.075 56.3533 162.984 56.3315 162.895 56.2874C162.807 56.2432 162.734 56.1822 162.674 56.1031C162.511 55.8513 162.372 55.661 162.259 55.5324C162.146 55.4037 161.994 55.2953 161.801 55.2075C161.609 55.1197 161.365 55.0756 161.067 55.0756C160.76 55.0756 160.487 55.1274 160.246 55.2315C160.004 55.3356 159.798 55.4861 159.627 55.6839C159.456 55.8818 159.325 56.1238 159.234 56.4106C159.143 56.6973 159.098 57.0151 159.098 57.3635C159.098 58.119 159.274 58.7001 159.627 59.1068C159.98 59.514 160.472 59.7173 161.103 59.7173C161.409 59.7173 161.698 59.6775 161.967 59.5985C162.236 59.5194 162.51 59.4066 162.787 59.2605V58.2149H161.76C161.513 58.2149 161.326 58.1784 161.199 58.1054C161.073 58.0323 161.01 57.908 161.01 57.732C161.01 57.5886 161.063 57.4698 161.168 57.376C161.274 57.2822 161.418 57.2353 161.6 57.2353H163.104C163.289 57.2353 163.445 57.2517 163.573 57.2839C163.701 57.316 163.804 57.388 163.884 57.4992C163.961 57.612 164 57.7788 164 58.0012Z" fill="#131718"/>
<path d="M66.124 11.3911H61.2489L55.6626 29.4723L58.6589 29.5224L60.0301 25.3266H66.9876L68.3588 29.4723H71.355L66.124 11.3911ZM61.1535 22.7744L63.5085 15.4419L65.8635 22.7744H61.1535Z" fill="#010101"/>
<path d="M87.2126 11.3164L83.4836 22.2445L79.7547 11.3164H74.2316V29.5224H77.3548V14.3882H77.8503L82.2305 29.5971H83.4798H83.487H84.7368L89.117 14.3882H89.612V29.5224H92.7352V11.3164H87.2126Z" fill="#010101"/>
<path d="M107.711 11.3911H94.7106V14.5877H99.3568V29.5224H103.064V14.5877H107.711V11.3911Z" fill="#010101"/>
</g>
<defs>
<clipPath id="clip0_6_2053">
<rect width="164" height="60" fill="white" transform="translate(0 0.728516)"/>
</clipPath>
</defs>
</svg>
