<svg width="24" height="25" viewBox="0 0 24 25" fill="none" xmlns="http://www.w3.org/2000/svg">
<g clip-path="url(#clip0_6_1928)">
<path d="M14.1233 3.13259C14.1862 3.1535 14.2508 3.1055 14.2478 3.03922C14.1784 1.51714 12.9601 0.5 11.6259 0.5C10.2835 0.5 9.07343 1.53022 9.00401 3.04016C9.00096 3.10644 9.06556 3.15444 9.12846 3.13353C10.6667 2.6217 12.6118 2.63 14.1233 3.13259Z" fill="#EA2427"/>
<path d="M21.0821 18.1301C19.839 17.0646 19.126 15.5144 19.126 13.8776V13.2453C19.126 13.1858 19.0714 13.1421 19.0131 13.1538C15.829 13.7914 12.751 11.3395 12.751 8.00083C12.751 5.7341 13.9935 4.52032 14.3946 4.17616C14.4479 4.13046 14.434 4.04416 14.3688 4.01829C9.51057 2.09069 4.12603 5.67204 4.12603 11.0008V13.8776C4.12603 15.4814 3.43711 17.0444 2.16994 18.1301C1.96088 18.3091 1.79025 18.5355 1.67635 18.784C1.09313 20.0516 2.02439 21.5008 3.41729 21.5008H19.8013C20.8121 21.5008 21.6744 20.7309 21.7462 19.7226C21.7914 19.086 21.5201 18.5052 21.0821 18.1301ZM11.626 24.5008C13.0178 24.5008 14.2155 23.6541 14.7307 22.4486C14.7707 22.355 14.7039 22.2508 14.6021 22.2508H8.64994C8.54817 22.2508 8.48138 22.355 8.52136 22.4486C9.03661 23.6541 10.2343 24.5008 11.626 24.5008Z" fill="#EA2427"/>
<path d="M18.0012 12.5C20.4983 12.5 22.5012 10.4783 22.5012 8C22.5012 5.51891 20.4823 3.5 18.0012 3.5C15.5061 3.5 13.5012 5.52636 13.5012 8C13.5012 10.4811 15.5201 12.5 18.0012 12.5ZM17.419 6.83563C17.2334 6.92797 17.0084 6.85297 16.9156 6.66781C16.8233 6.48266 16.8983 6.25719 17.0834 6.16437L17.8334 5.78937C18.0809 5.66562 18.3762 5.84455 18.3762 6.125V9.45312C18.3762 9.479 18.3972 9.5 18.4231 9.5H18.7385C18.9383 9.5 19.1126 9.65084 19.1254 9.8502C19.1394 10.0686 18.9666 10.25 18.7512 10.25H17.264C17.0642 10.25 16.8898 10.0992 16.877 9.8998C16.863 9.68136 17.0358 9.5 17.2512 9.5H17.5793C17.6052 9.5 17.6262 9.479 17.6262 9.45312V6.80755C17.6262 6.77267 17.5895 6.74998 17.5583 6.76564L17.419 6.83563Z" fill="#EA2427"/>
</g>
<defs>
<clipPath id="clip0_6_1928">
<rect width="24" height="24" fill="white" transform="translate(0 0.5)"/>
</clipPath>
</defs>
</svg>
